<svg xmlns="http://www.w3.org/2000/svg" xmlns:xlink="http://www.w3.org/1999/xlink" viewBox="0 196 1025 186" preserveAspectRatio="xMidYMid meet" version="1.0"><defs><clipPath id="7580171f18"><path d="M 4 219.515625 L 82.519531 219.515625 L 82.519531 344.78125 L 4 344.78125 Z M 4 219.515625 " clip-rule="nonzero"/></clipPath><clipPath id="b40cb4636a"><path d="M 75.578125 219.582031 L 4.144531 344.195312 L 10.90625 344.195312 L 82.335938 219.582031 Z M 75.578125 219.582031 " clip-rule="nonzero"/></clipPath><clipPath id="01601d5721"><path d="M 0.078125 0.515625 L 78.519531 0.515625 L 78.519531 125.371094 L 0.078125 125.371094 Z M 0.078125 0.515625 " clip-rule="nonzero"/></clipPath><clipPath id="aac5258849"><path d="M 71.578125 0.582031 L 0.144531 125.195312 L 6.90625 125.195312 L 78.335938 0.582031 Z M 71.578125 0.582031 " clip-rule="nonzero"/></clipPath><clipPath id="3b151b3aca"><rect x="0" width="79" y="0" height="126"/></clipPath><clipPath id="63afdedcc0"><path d="M 23 219.515625 L 101.519531 219.515625 L 101.519531 344.78125 L 23 344.78125 Z M 23 219.515625 " clip-rule="nonzero"/></clipPath><clipPath id="c2549baf33"><path d="M 94.511719 219.582031 L 23.078125 344.195312 L 29.835938 344.195312 L 101.269531 219.582031 Z M 94.511719 219.582031 " clip-rule="nonzero"/></clipPath><clipPath id="8a10506802"><path d="M 0.0273438 0.515625 L 78.46875 0.515625 L 78.46875 125.371094 L 0.0273438 125.371094 Z M 0.0273438 0.515625 " clip-rule="nonzero"/></clipPath><clipPath id="a439099d8b"><path d="M 71.511719 0.582031 L 0.078125 125.195312 L 6.835938 125.195312 L 78.269531 0.582031 Z M 71.511719 0.582031 " clip-rule="nonzero"/></clipPath><clipPath id="02ba96ca15"><rect x="0" width="79" y="0" height="126"/></clipPath><clipPath id="0845561609"><path d="M 42 219.515625 L 151.980469 219.515625 L 151.980469 344.78125 L 42 344.78125 Z M 42 219.515625 " clip-rule="nonzero"/></clipPath><clipPath id="189497c70e"><path d="M 151.746094 286.402344 L 118.617188 344.195312 L 42.003906 344.195312 L 113.445312 219.582031 Z M 151.746094 286.402344 " clip-rule="nonzero"/></clipPath><clipPath id="3ec77932be"><path d="M 0 0.515625 L 109.847656 0.515625 L 109.847656 125.371094 L 0 125.371094 Z M 0 0.515625 " clip-rule="nonzero"/></clipPath><clipPath id="082bde650b"><path d="M 109.746094 67.402344 L 76.617188 125.195312 L 0.00390625 125.195312 L 71.445312 0.582031 Z M 109.746094 67.402344 " clip-rule="nonzero"/></clipPath><clipPath id="c396579069"><rect x="0" width="110" y="0" height="126"/></clipPath><clipPath id="6b51b3a5e8"><path d="M 221 219.515625 L 299.804688 219.515625 L 299.804688 344.78125 L 221 344.78125 Z M 221 219.515625 " clip-rule="nonzero"/></clipPath><clipPath id="4fe5adc97b"><path d="M 227.914062 219.582031 L 299.347656 344.195312 L 292.589844 344.195312 L 221.15625 219.582031 Z M 227.914062 219.582031 " clip-rule="nonzero"/></clipPath><clipPath id="f647d38a63"><path d="M 0 0.515625 L 78.375 0.515625 L 78.375 125.371094 L 0 125.371094 Z M 0 0.515625 " clip-rule="nonzero"/></clipPath><clipPath id="85fbc29707"><path d="M 6.914062 0.582031 L 78.347656 125.195312 L 71.589844 125.195312 L 0.15625 0.582031 Z M 6.914062 0.582031 " clip-rule="nonzero"/></clipPath><clipPath id="577a2de1cb"><rect x="0" width="79" y="0" height="126"/></clipPath><clipPath id="a9e3d1f64c"><path d="M 202 219.515625 L 280.804688 219.515625 L 280.804688 344.78125 L 202 344.78125 Z M 202 219.515625 " clip-rule="nonzero"/></clipPath><clipPath id="b2ee6d0e71"><path d="M 208.992188 219.582031 L 280.425781 344.195312 L 273.664062 344.195312 L 202.226562 219.582031 Z M 208.992188 219.582031 " clip-rule="nonzero"/></clipPath><clipPath id="bb3907e89a"><path d="M 0.222656 0.515625 L 78.664062 0.515625 L 78.664062 125.371094 L 0.222656 125.371094 Z M 0.222656 0.515625 " clip-rule="nonzero"/></clipPath><clipPath id="726adc9510"><path d="M 6.992188 0.582031 L 78.425781 125.195312 L 71.664062 125.195312 L 0.226562 0.582031 Z M 6.992188 0.582031 " clip-rule="nonzero"/></clipPath><clipPath id="ac760e058a"><rect x="0" width="79" y="0" height="126"/></clipPath><clipPath id="7b2f508d7c"><path d="M 118.140625 286.007812 L 185 286.007812 L 185 344.78125 L 118.140625 344.78125 Z M 118.140625 286.007812 " clip-rule="nonzero"/></clipPath><clipPath id="163e6a4d92"><path d="M 184.875 344.195312 L 118.625 344.195312 L 151.753906 286.402344 Z M 184.875 344.195312 " clip-rule="nonzero"/></clipPath><clipPath id="901331158b"><path d="M 0.503906 0.320312 L 66.949219 0.320312 L 66.949219 58.371094 L 0.503906 58.371094 Z M 0.503906 0.320312 " clip-rule="nonzero"/></clipPath><clipPath id="fc1812a3cb"><path d="M 66.875 58.195312 L 0.625 58.195312 L 33.753906 0.402344 Z M 66.875 58.195312 " clip-rule="nonzero"/></clipPath><clipPath id="fd91b692cf"><rect x="0" width="67" y="0" height="59"/></clipPath><clipPath id="7e16cc534c"><path d="M 151.386719 219.515625 L 261.808594 219.515625 L 261.808594 344.78125 L 151.386719 344.78125 Z M 151.386719 219.515625 " clip-rule="nonzero"/></clipPath><clipPath id="54d3f4c854"><path d="M 261.492188 344.195312 L 184.875 344.195312 L 151.753906 286.402344 L 190.058594 219.582031 Z M 261.492188 344.195312 " clip-rule="nonzero"/></clipPath><clipPath id="3c6d796cb2"><path d="M 0.605469 0.515625 L 110.710938 0.515625 L 110.710938 125.371094 L 0.605469 125.371094 Z M 0.605469 0.515625 " clip-rule="nonzero"/></clipPath><clipPath id="6e2cf50479"><path d="M 110.492188 125.195312 L 33.875 125.195312 L 0.753906 67.402344 L 39.058594 0.582031 Z M 110.492188 125.195312 " clip-rule="nonzero"/></clipPath><clipPath id="66d9d74ef2"><rect x="0" width="111" y="0" height="126"/></clipPath><clipPath id="ee23948423"><path d="M 76.257812 200.507812 L 227.242188 200.507812 L 227.242188 207.265625 L 76.257812 207.265625 Z M 76.257812 200.507812 " clip-rule="nonzero"/></clipPath><clipPath id="b8bf2b7141"><path d="M 0.257812 0.507812 L 151.242188 0.507812 L 151.242188 7.265625 L 0.257812 7.265625 Z M 0.257812 0.507812 " clip-rule="nonzero"/></clipPath><clipPath id="272f71af6e"><rect x="0" width="152" y="0" height="8"/></clipPath><clipPath id="7a30e9622b"><path d="M 117.546875 203.484375 L 185.820312 203.484375 L 185.820312 262.851562 L 117.546875 262.851562 Z M 117.546875 203.484375 " clip-rule="nonzero"/></clipPath><clipPath id="681f38422d"><path d="M 185.515625 203.890625 L 151.746094 262.785156 L 117.980469 203.890625 Z M 185.515625 203.890625 " clip-rule="nonzero"/></clipPath><clipPath id="5d724a29ac"><path d="M 0.78125 0.800781 L 68.667969 0.800781 L 68.667969 59.8125 L 0.78125 59.8125 Z M 0.78125 0.800781 " clip-rule="nonzero"/></clipPath><clipPath id="7afbfb0c91"><path d="M 68.515625 0.890625 L 34.746094 59.785156 L 0.980469 0.890625 Z M 68.515625 0.890625 " clip-rule="nonzero"/></clipPath><clipPath id="a2fbeea832"><rect x="0" width="69" y="0" height="60"/></clipPath><clipPath id="5a204b5ca6"><path d="M 348.917969 216.96875 L 370.945312 216.96875 L 370.945312 339.851562 L 348.917969 339.851562 Z M 348.917969 216.96875 " clip-rule="nonzero"/></clipPath><clipPath id="6e0eb62984"><path d="M 370.910156 216.96875 L 370.941406 339.777344 L 348.917969 339.777344 L 348.917969 216.96875 Z M 370.910156 216.96875 " clip-rule="nonzero"/></clipPath><clipPath id="b6c7af3e2a"><path d="M 0.917969 0.96875 L 22.945312 0.96875 L 22.945312 123.816406 L 0.917969 123.816406 Z M 0.917969 0.96875 " clip-rule="nonzero"/></clipPath><clipPath id="2e8913de82"><path d="M 22.910156 0.96875 L 22.941406 123.777344 L 0.917969 123.777344 L 0.917969 0.96875 Z M 22.910156 0.96875 " clip-rule="nonzero"/></clipPath><clipPath id="22aa8682d5"><rect x="0" width="23" y="0" height="124"/></clipPath><clipPath id="19ad7ced8e"><path d="M 384 249.960938 L 475.417969 249.960938 L 475.417969 341.9375 L 384 341.9375 Z M 384 249.960938 " clip-rule="nonzero"/></clipPath><clipPath id="e380179463"><path d="M 453.621094 286.625 C 451.90625 281.488281 448.976562 277.460938 444.824219 274.523438 C 440.667969 271.589844 435.59375 270.128906 429.613281 270.128906 C 423.503906 270.128906 418.371094 271.597656 414.214844 274.523438 C 410.0625 277.453125 407.191406 281.488281 405.597656 286.625 Z M 384.15625 295.785156 C 384.15625 289.1875 385.28125 283.082031 387.546875 277.460938 C 389.808594 271.835938 392.953125 266.984375 396.984375 262.890625 C 401.011719 258.792969 405.808594 255.617188 411.371094 253.351562 C 416.933594 251.089844 423.015625 249.960938 429.605469 249.960938 C 436.199219 249.960938 442.285156 251.089844 447.851562 253.351562 C 453.414062 255.617188 458.207031 258.792969 462.238281 262.882812 C 466.269531 266.96875 469.417969 271.835938 471.675781 277.453125 C 473.929688 283.066406 475.066406 289.1875 475.066406 295.777344 C 475.066406 296.632812 475.035156 297.460938 474.976562 298.25 C 474.917969 299.039062 474.761719 300.058594 474.519531 301.277344 L 404.679688 301.277344 C 405.78125 307.511719 408.492188 312.429688 412.839844 316.027344 C 417.183594 319.628906 422.765625 321.445312 429.605469 321.445312 C 434.25 321.445312 438.371094 320.589844 441.980469 318.882812 C 445.585938 317.171875 448.488281 314.667969 450.6875 311.367188 L 472.679688 311.367188 C 471.210938 316.011719 469.128906 320.199219 466.449219 323.921875 C 463.773438 327.648438 460.554688 330.832031 456.832031 333.453125 C 453.109375 336.074219 448.953125 338.097656 444.367188 339.496094 C 439.78125 340.898438 434.863281 341.605469 429.613281 341.605469 C 423.015625 341.605469 416.933594 340.476562 411.378906 338.210938 C 405.824219 335.949219 401.011719 332.804688 396.984375 328.773438 C 392.953125 324.746094 389.800781 319.917969 387.546875 314.296875 C 385.289062 308.671875 384.15625 302.503906 384.15625 295.785156 " clip-rule="nonzero"/></clipPath><clipPath id="019821e144"><path d="M 0.0507812 0.960938 L 91.207031 0.960938 L 91.207031 92.734375 L 0.0507812 92.734375 Z M 0.0507812 0.960938 " clip-rule="nonzero"/></clipPath><clipPath id="f28214d80d"><path d="M 69.621094 37.625 C 67.90625 32.488281 64.976562 28.460938 60.824219 25.523438 C 56.667969 22.589844 51.59375 21.128906 45.613281 21.128906 C 39.503906 21.128906 34.371094 22.597656 30.214844 25.523438 C 26.0625 28.453125 23.191406 32.488281 21.597656 37.625 Z M 0.15625 46.785156 C 0.15625 40.1875 1.28125 34.082031 3.546875 28.460938 C 5.808594 22.835938 8.953125 17.984375 12.984375 13.890625 C 17.011719 9.792969 21.808594 6.617188 27.371094 4.351562 C 32.933594 2.089844 39.015625 0.960938 45.605469 0.960938 C 52.199219 0.960938 58.285156 2.089844 63.851562 4.351562 C 69.414062 6.617188 74.207031 9.792969 78.238281 13.882812 C 82.269531 17.96875 85.417969 22.835938 87.675781 28.453125 C 89.929688 34.066406 91.066406 40.1875 91.066406 46.777344 C 91.066406 47.632812 91.035156 48.460938 90.976562 49.25 C 90.917969 50.039062 90.761719 51.058594 90.519531 52.277344 L 20.679688 52.277344 C 21.78125 58.511719 24.492188 63.429688 28.839844 67.027344 C 33.183594 70.628906 38.765625 72.445312 45.605469 72.445312 C 50.25 72.445312 54.371094 71.589844 57.980469 69.882812 C 61.585938 68.171875 64.488281 65.667969 66.6875 62.367188 L 88.679688 62.367188 C 87.210938 67.011719 85.128906 71.199219 82.449219 74.921875 C 79.773438 78.648438 76.554688 81.832031 72.832031 84.453125 C 69.109375 87.074219 64.953125 89.097656 60.367188 90.496094 C 55.78125 91.898438 50.863281 92.605469 45.613281 92.605469 C 39.015625 92.605469 32.933594 91.476562 27.378906 89.210938 C 21.824219 86.949219 17.011719 83.804688 12.984375 79.773438 C 8.953125 75.746094 5.800781 70.917969 3.546875 65.296875 C 1.289062 59.671875 0.15625 53.503906 0.15625 46.785156 " clip-rule="nonzero"/></clipPath><clipPath id="035867aab2"><rect x="0" width="92" y="0" height="93"/></clipPath><clipPath id="c09c02640d"><path d="M 486.0625 251.441406 L 575.871094 251.441406 L 575.871094 378.441406 L 486.0625 378.441406 Z M 486.0625 251.441406 " clip-rule="nonzero"/></clipPath><clipPath id="0c4a084d71"><path d="M 555.710938 296.699219 L 555.710938 284.78125 L 575.871094 284.78125 L 575.871094 333.359375 C 575.871094 339.589844 574.710938 345.460938 572.386719 350.957031 C 570.066406 356.457031 566.890625 361.222656 562.859375 365.253906 C 558.828125 369.285156 554.09375 372.460938 548.65625 374.78125 C 543.214844 377.105469 537.320312 378.265625 530.964844 378.265625 C 525.585938 378.265625 520.484375 377.410156 515.65625 375.703125 C 510.832031 373.996094 506.496094 371.574219 502.648438 368.457031 C 498.800781 365.335938 495.53125 361.640625 492.84375 357.367188 C 490.15625 353.097656 488.257812 348.445312 487.164062 343.4375 L 508.417969 343.4375 C 510.375 347.832031 513.335938 351.378906 517.308594 354.066406 C 521.28125 356.753906 525.832031 358.097656 530.964844 358.097656 C 534.382812 358.097656 537.59375 357.484375 540.585938 356.265625 C 543.578125 355.046875 546.175781 353.394531 548.371094 351.3125 C 550.570312 349.234375 552.3125 346.730469 553.597656 343.800781 C 554.882812 340.875 555.578125 337.757812 555.703125 334.457031 C 548.488281 339.222656 540.246094 341.605469 530.957031 341.605469 C 524.722656 341.605469 518.859375 340.441406 513.359375 338.121094 C 507.863281 335.800781 503.109375 332.621094 499.074219 328.59375 C 495.035156 324.5625 491.867188 319.792969 489.542969 314.296875 C 487.222656 308.796875 486.0625 302.933594 486.0625 296.699219 C 486.0625 290.347656 487.222656 284.449219 489.542969 279.011719 C 491.867188 273.570312 495.042969 268.835938 499.074219 264.804688 C 503.101562 260.773438 507.871094 257.597656 513.371094 255.277344 C 518.867188 252.957031 524.738281 251.792969 530.964844 251.792969 L 575.871094 251.792969 L 575.871094 271.953125 L 530.964844 271.953125 C 527.542969 271.953125 524.339844 272.59375 521.347656 273.878906 C 518.351562 275.164062 515.722656 276.90625 513.46875 279.101562 C 511.214844 281.300781 509.4375 283.894531 508.152344 286.890625 C 506.867188 289.882812 506.230469 293.148438 506.230469 296.699219 C 506.230469 300.125 506.867188 303.359375 508.152344 306.410156 C 509.4375 309.460938 511.203125 312.089844 513.46875 314.289062 C 515.734375 316.484375 518.351562 318.226562 521.347656 319.511719 C 524.339844 320.796875 527.550781 321.4375 530.964844 321.4375 C 534.507812 321.4375 537.773438 320.796875 540.769531 319.511719 C 543.761719 318.226562 546.355469 316.484375 548.554688 314.289062 C 550.753906 312.089844 552.492188 309.460938 553.78125 306.410156 C 555.066406 303.359375 555.703125 300.117188 555.703125 296.699219 " clip-rule="nonzero"/></clipPath><clipPath id="d34471fad8"><path d="M 0.0625 0.777344 L 89.871094 0.777344 L 89.871094 127.4375 L 0.0625 127.4375 Z M 0.0625 0.777344 " clip-rule="nonzero"/></clipPath><clipPath id="f239c333c5"><path d="M 69.710938 45.699219 L 69.710938 33.78125 L 89.871094 33.78125 L 89.871094 82.359375 C 89.871094 88.589844 88.710938 94.460938 86.386719 99.957031 C 84.066406 105.457031 80.890625 110.222656 76.859375 114.253906 C 72.828125 118.285156 68.09375 121.460938 62.65625 123.78125 C 57.214844 126.105469 51.320312 127.265625 44.964844 127.265625 C 39.585938 127.265625 34.484375 126.410156 29.65625 124.703125 C 24.832031 122.996094 20.496094 120.574219 16.648438 117.457031 C 12.800781 114.335938 9.53125 110.640625 6.84375 106.367188 C 4.15625 102.097656 2.257812 97.445312 1.164062 92.4375 L 22.417969 92.4375 C 24.375 96.832031 27.335938 100.378906 31.308594 103.066406 C 35.28125 105.753906 39.832031 107.097656 44.964844 107.097656 C 48.382812 107.097656 51.59375 106.484375 54.585938 105.265625 C 57.578125 104.046875 60.175781 102.394531 62.371094 100.3125 C 64.570312 98.234375 66.3125 95.730469 67.597656 92.800781 C 68.882812 89.875 69.578125 86.757812 69.703125 83.457031 C 62.488281 88.222656 54.246094 90.605469 44.957031 90.605469 C 38.722656 90.605469 32.859375 89.441406 27.359375 87.121094 C 21.863281 84.800781 17.109375 81.621094 13.074219 77.59375 C 9.035156 73.5625 5.867188 68.792969 3.542969 63.296875 C 1.222656 57.796875 0.0625 51.933594 0.0625 45.699219 C 0.0625 39.347656 1.222656 33.449219 3.542969 28.011719 C 5.867188 22.570312 9.042969 17.835938 13.074219 13.804688 C 17.101562 9.773438 21.871094 6.597656 27.371094 4.277344 C 32.867188 1.957031 38.738281 0.792969 44.964844 0.792969 L 89.871094 0.792969 L 89.871094 20.953125 L 44.964844 20.953125 C 41.542969 20.953125 38.339844 21.59375 35.347656 22.878906 C 32.351562 24.164062 29.722656 25.90625 27.46875 28.101562 C 25.214844 30.300781 23.4375 32.894531 22.152344 35.890625 C 20.867188 38.882812 20.230469 42.148438 20.230469 45.699219 C 20.230469 49.125 20.867188 52.359375 22.152344 55.410156 C 23.4375 58.460938 25.203125 61.089844 27.46875 63.289062 C 29.734375 65.484375 32.351562 67.226562 35.347656 68.511719 C 38.339844 69.796875 41.550781 70.4375 44.964844 70.4375 C 48.507812 70.4375 51.773438 69.796875 54.769531 68.511719 C 57.761719 67.226562 60.355469 65.484375 62.554688 63.289062 C 64.753906 61.089844 66.492188 58.460938 67.78125 55.410156 C 69.066406 52.359375 69.703125 49.117188 69.703125 45.699219 " clip-rule="nonzero"/></clipPath><clipPath id="679f927a4d"><rect x="0" width="90" y="0" height="128"/></clipPath><clipPath id="6611b2d740"><path d="M 594.199219 251.789062 L 614.359375 251.789062 L 614.359375 339.773438 L 594.199219 339.773438 Z M 594.199219 251.789062 " clip-rule="nonzero"/></clipPath><clipPath id="b566b136fb"><path d="M 0.199219 0.789062 L 20.359375 0.789062 L 20.359375 88.773438 L 0.199219 88.773438 Z M 0.199219 0.789062 " clip-rule="nonzero"/></clipPath><clipPath id="2d9c0d53c6"><rect x="0" width="21" y="0" height="89"/></clipPath><clipPath id="6a98765ac9"><path d="M 590.824219 219 L 617.738281 219 L 617.738281 244.105469 L 590.824219 244.105469 Z M 590.824219 219 " clip-rule="nonzero"/></clipPath><clipPath id="b7c27a4553"><path d="M 617.710938 219 L 617.710938 234.839844 L 604.285156 244.09375 L 590.847656 234.839844 L 590.847656 219 L 604.285156 228.253906 Z M 617.710938 219 " clip-rule="nonzero"/></clipPath><clipPath id="b07e7418f4"><path d="M 0.832031 0 L 27.738281 0 L 27.738281 25.101562 L 0.832031 25.101562 Z M 0.832031 0 " clip-rule="nonzero"/></clipPath><clipPath id="ea0385120a"><path d="M 27.710938 0 L 27.710938 15.839844 L 14.285156 25.09375 L 0.847656 15.839844 L 0.847656 0 L 14.285156 9.253906 Z M 27.710938 0 " clip-rule="nonzero"/></clipPath><clipPath id="79b75d71cb"><rect x="0" width="28" y="0" height="26"/></clipPath><clipPath id="2704c00ebe"><path d="M 629 249.960938 L 720 249.960938 L 720 341.9375 L 629 341.9375 Z M 629 249.960938 " clip-rule="nonzero"/></clipPath><clipPath id="d565cf4f00"><path d="M 698.488281 286.625 C 696.773438 281.488281 693.847656 277.460938 689.691406 274.523438 C 685.535156 271.589844 680.460938 270.128906 674.484375 270.128906 C 668.371094 270.128906 663.238281 271.597656 659.082031 274.523438 C 654.929688 277.453125 652.058594 281.488281 650.46875 286.625 Z M 629.023438 295.785156 C 629.023438 289.1875 630.148438 283.082031 632.414062 277.460938 C 634.675781 271.835938 637.820312 266.984375 641.851562 262.890625 C 645.882812 258.792969 650.675781 255.617188 656.238281 253.351562 C 661.804688 251.089844 667.882812 249.960938 674.472656 249.960938 C 681.066406 249.960938 687.152344 251.089844 692.71875 253.351562 C 698.28125 255.617188 703.074219 258.792969 707.105469 262.882812 C 711.136719 266.96875 714.289062 271.835938 716.542969 277.453125 C 718.796875 283.066406 719.933594 289.1875 719.933594 295.777344 C 719.933594 296.632812 719.902344 297.460938 719.84375 298.25 C 719.785156 299.039062 719.628906 300.058594 719.386719 301.277344 L 649.554688 301.277344 C 650.65625 307.511719 653.371094 312.429688 657.707031 316.027344 C 662.042969 319.628906 667.632812 321.445312 674.472656 321.445312 C 679.117188 321.445312 683.238281 320.589844 686.847656 318.882812 C 690.453125 317.171875 693.355469 314.667969 695.554688 311.367188 L 717.546875 311.367188 C 716.078125 316.011719 713.996094 320.199219 711.320312 323.921875 C 708.640625 327.648438 705.421875 330.832031 701.699219 333.453125 C 697.976562 336.074219 693.820312 338.097656 689.234375 339.496094 C 684.648438 340.898438 679.730469 341.605469 674.484375 341.605469 C 667.882812 341.605469 661.804688 340.476562 656.246094 338.210938 C 650.691406 335.949219 645.882812 332.804688 641.851562 328.773438 C 637.820312 324.746094 634.667969 319.917969 632.414062 314.296875 C 630.15625 308.671875 629.023438 302.503906 629.023438 295.785156 " clip-rule="nonzero"/></clipPath><clipPath id="069c71a05c"><path d="M 0 0.960938 L 91 0.960938 L 91 92.734375 L 0 92.734375 Z M 0 0.960938 " clip-rule="nonzero"/></clipPath><clipPath id="6252dc793d"><path d="M 69.488281 37.625 C 67.773438 32.488281 64.847656 28.460938 60.691406 25.523438 C 56.535156 22.589844 51.460938 21.128906 45.484375 21.128906 C 39.371094 21.128906 34.238281 22.597656 30.082031 25.523438 C 25.929688 28.453125 23.058594 32.488281 21.46875 37.625 Z M 0.0234375 46.785156 C 0.0234375 40.1875 1.148438 34.082031 3.414062 28.460938 C 5.675781 22.835938 8.820312 17.984375 12.851562 13.890625 C 16.882812 9.792969 21.675781 6.617188 27.238281 4.351562 C 32.804688 2.089844 38.882812 0.960938 45.472656 0.960938 C 52.066406 0.960938 58.152344 2.089844 63.71875 4.351562 C 69.28125 6.617188 74.074219 9.792969 78.105469 13.882812 C 82.136719 17.96875 85.289062 22.835938 87.542969 28.453125 C 89.796875 34.066406 90.933594 40.1875 90.933594 46.777344 C 90.933594 47.632812 90.902344 48.460938 90.84375 49.25 C 90.785156 50.039062 90.628906 51.058594 90.386719 52.277344 L 20.554688 52.277344 C 21.65625 58.511719 24.371094 63.429688 28.707031 67.027344 C 33.042969 70.628906 38.632812 72.445312 45.472656 72.445312 C 50.117188 72.445312 54.238281 71.589844 57.847656 69.882812 C 61.453125 68.171875 64.355469 65.667969 66.554688 62.367188 L 88.546875 62.367188 C 87.078125 67.011719 84.996094 71.199219 82.320312 74.921875 C 79.640625 78.648438 76.421875 81.832031 72.699219 84.453125 C 68.976562 87.074219 64.820312 89.097656 60.234375 90.496094 C 55.648438 91.898438 50.730469 92.605469 45.484375 92.605469 C 38.882812 92.605469 32.804688 91.476562 27.246094 89.210938 C 21.691406 86.949219 16.882812 83.804688 12.851562 79.773438 C 8.820312 75.746094 5.667969 70.917969 3.414062 65.296875 C 1.15625 59.671875 0.0234375 53.503906 0.0234375 46.785156 " clip-rule="nonzero"/></clipPath><clipPath id="7173ec697d"><rect x="0" width="91" y="0" height="93"/></clipPath><clipPath id="8bd7c0c935"><path d="M 734.59375 249.960938 L 817 249.960938 L 817 339.972656 L 734.59375 339.972656 Z M 734.59375 249.960938 " clip-rule="nonzero"/></clipPath><clipPath id="a38ec9048e"><path d="M 775.832031 270.121094 C 769.480469 270.121094 764.382812 271.988281 760.527344 275.710938 C 756.667969 279.433594 754.753906 284.417969 754.753906 290.644531 L 754.753906 339.773438 L 734.59375 339.773438 L 734.59375 290.65625 C 734.59375 284.78125 735.632812 279.351562 737.710938 274.34375 C 739.792969 269.332031 742.65625 265.023438 746.328125 261.414062 C 750.003906 257.808594 754.324219 255.003906 759.339844 252.988281 C 764.355469 250.972656 769.847656 249.960938 775.832031 249.960938 C 781.820312 249.960938 787.320312 250.972656 792.328125 252.988281 C 797.335938 255.003906 801.671875 257.816406 805.339844 261.414062 C 809.003906 265.011719 811.847656 269.324219 813.863281 274.335938 C 815.878906 279.34375 816.890625 284.78125 816.890625 290.644531 L 816.890625 339.773438 L 796.730469 339.773438 L 796.730469 290.65625 C 796.730469 284.417969 794.832031 279.441406 791.050781 275.71875 C 787.269531 271.996094 782.1875 270.128906 775.84375 270.128906 " clip-rule="nonzero"/></clipPath><clipPath id="6583142a40"><path d="M 0.59375 0.960938 L 83 0.960938 L 83 90.816406 L 0.59375 90.816406 Z M 0.59375 0.960938 " clip-rule="nonzero"/></clipPath><clipPath id="bba16ee201"><path d="M 41.832031 21.121094 C 35.480469 21.121094 30.382812 22.988281 26.527344 26.710938 C 22.667969 30.433594 20.753906 35.417969 20.753906 41.644531 L 20.753906 90.773438 L 0.59375 90.773438 L 0.59375 41.65625 C 0.59375 35.78125 1.632812 30.351562 3.710938 25.34375 C 5.792969 20.332031 8.65625 16.023438 12.328125 12.414062 C 16.003906 8.808594 20.324219 6.003906 25.339844 3.988281 C 30.355469 1.972656 35.847656 0.960938 41.832031 0.960938 C 47.820312 0.960938 53.320312 1.972656 58.328125 3.988281 C 63.335938 6.003906 67.671875 8.816406 71.339844 12.414062 C 75.003906 16.011719 77.847656 20.324219 79.863281 25.335938 C 81.878906 30.34375 82.890625 35.78125 82.890625 41.644531 L 82.890625 90.773438 L 62.730469 90.773438 L 62.730469 41.65625 C 62.730469 35.417969 60.832031 30.441406 57.050781 26.71875 C 53.269531 22.996094 48.1875 21.128906 41.84375 21.128906 " clip-rule="nonzero"/></clipPath><clipPath id="6b2f3d7db1"><rect x="0" width="83" y="0" height="91"/></clipPath><clipPath id="3365f4c630"><path d="M 831.550781 249.960938 L 922.449219 249.960938 L 922.449219 341.921875 L 831.550781 341.921875 Z M 831.550781 249.960938 " clip-rule="nonzero"/></clipPath><clipPath id="d807f54daa"><path d="M 877.378906 270.121094 C 873.710938 270.121094 870.320312 270.761719 867.203125 272.046875 C 864.085938 273.332031 861.398438 275.128906 859.140625 277.453125 C 856.886719 279.773438 855.078125 282.496094 853.734375 285.613281 C 852.390625 288.730469 851.71875 292.121094 851.71875 295.789062 C 851.71875 299.453125 852.390625 302.84375 853.734375 305.960938 C 855.078125 309.082031 856.878906 311.765625 859.140625 314.023438 C 861.40625 316.277344 864.09375 318.085938 867.203125 319.429688 C 870.3125 320.773438 873.710938 321.445312 877.378906 321.445312 C 882.875 321.445312 887.734375 320.042969 891.949219 317.230469 C 896.160156 314.421875 899.1875 310.632812 901.019531 305.871094 L 922.101562 305.871094 C 921.003906 311.128906 919.074219 315.957031 916.328125 320.351562 C 913.582031 324.746094 910.25 328.511719 906.335938 331.621094 C 902.421875 334.730469 897.992188 337.183594 893.042969 338.949219 C 888.089844 340.71875 882.867188 341.605469 877.371094 341.605469 C 871.015625 341.605469 865.023438 340.410156 859.40625 338.03125 C 853.792969 335.648438 848.933594 332.40625 844.835938 328.320312 C 840.742188 324.230469 837.507812 319.371094 835.125 313.75 C 832.746094 308.128906 831.550781 302.140625 831.550781 295.789062 C 831.550781 289.3125 832.746094 283.296875 835.125 277.734375 C 837.507812 272.171875 840.75 267.320312 844.835938 263.164062 C 848.925781 259.007812 853.792969 255.765625 859.414062 253.445312 C 865.039062 251.125 871.015625 249.960938 877.378906 249.960938 C 882.875 249.960938 888.101562 250.847656 893.050781 252.625 C 898 254.398438 902.429688 256.835938 906.34375 259.953125 C 910.257812 263.074219 913.582031 266.828125 916.335938 271.226562 C 919.089844 275.621094 921.011719 280.453125 922.109375 285.703125 L 901.019531 285.703125 C 899.1875 280.933594 896.160156 277.152344 891.949219 274.34375 C 887.734375 271.53125 882.875 270.128906 877.378906 270.128906 " clip-rule="nonzero"/></clipPath><clipPath id="4a452217f5"><path d="M 0.550781 0.960938 L 91.109375 0.960938 L 91.109375 92.734375 L 0.550781 92.734375 Z M 0.550781 0.960938 " clip-rule="nonzero"/></clipPath><clipPath id="f5be182479"><path d="M 46.378906 21.121094 C 42.710938 21.121094 39.320312 21.761719 36.203125 23.046875 C 33.085938 24.332031 30.398438 26.128906 28.140625 28.453125 C 25.886719 30.773438 24.078125 33.496094 22.734375 36.613281 C 21.390625 39.730469 20.71875 43.121094 20.71875 46.789062 C 20.71875 50.453125 21.390625 53.84375 22.734375 56.960938 C 24.078125 60.082031 25.878906 62.765625 28.140625 65.023438 C 30.40625 67.277344 33.09375 69.085938 36.203125 70.429688 C 39.3125 71.773438 42.710938 72.445312 46.378906 72.445312 C 51.875 72.445312 56.734375 71.042969 60.949219 68.230469 C 65.160156 65.421875 68.1875 61.632812 70.019531 56.871094 L 91.101562 56.871094 C 90.003906 62.128906 88.074219 66.957031 85.328125 71.351562 C 82.582031 75.746094 79.25 79.511719 75.335938 82.621094 C 71.421875 85.730469 66.992188 88.183594 62.042969 89.949219 C 57.089844 91.71875 51.867188 92.605469 46.371094 92.605469 C 40.015625 92.605469 34.023438 91.410156 28.40625 89.03125 C 22.792969 86.648438 17.933594 83.40625 13.835938 79.320312 C 9.742188 75.230469 6.507812 70.371094 4.125 64.75 C 1.746094 59.128906 0.550781 53.140625 0.550781 46.789062 C 0.550781 40.3125 1.746094 34.296875 4.125 28.734375 C 6.507812 23.171875 9.75 18.320312 13.835938 14.164062 C 17.925781 10.007812 22.792969 6.765625 28.414062 4.445312 C 34.039062 2.125 40.015625 0.960938 46.378906 0.960938 C 51.875 0.960938 57.101562 1.847656 62.050781 3.625 C 67 5.398438 71.429688 7.835938 75.34375 10.953125 C 79.257812 14.074219 82.582031 17.828125 85.335938 22.226562 C 88.089844 26.621094 90.011719 31.453125 91.109375 36.703125 L 70.019531 36.703125 C 68.1875 31.933594 65.160156 28.152344 60.949219 25.34375 C 56.734375 22.53125 51.875 21.128906 46.378906 21.128906 " clip-rule="nonzero"/></clipPath><clipPath id="3cc4fb458a"><rect x="0" width="92" y="0" height="93"/></clipPath><clipPath id="171abcf829"><path d="M 933 249.960938 L 1024 249.960938 L 1024 341.9375 L 933 341.9375 Z M 933 249.960938 " clip-rule="nonzero"/></clipPath><clipPath id="42a58969cd"><path d="M 1002.558594 286.625 C 1000.839844 281.488281 997.914062 277.460938 993.757812 274.523438 C 989.605469 271.589844 984.53125 270.128906 978.550781 270.128906 C 972.4375 270.128906 967.304688 271.597656 963.152344 274.523438 C 958.996094 277.453125 956.128906 281.488281 954.535156 286.625 Z M 933.089844 295.785156 C 933.089844 289.1875 934.21875 283.082031 936.480469 277.460938 C 938.746094 271.835938 941.890625 266.984375 945.917969 262.890625 C 949.949219 258.792969 954.75 255.617188 960.308594 253.351562 C 965.863281 251.089844 971.949219 249.960938 978.542969 249.960938 C 985.136719 249.960938 991.222656 251.089844 996.785156 253.351562 C 1002.351562 255.617188 1007.144531 258.792969 1011.175781 262.882812 C 1015.203125 266.96875 1018.347656 271.835938 1020.609375 277.453125 C 1022.875 283.066406 1024.003906 289.1875 1024.003906 295.777344 C 1024.003906 296.632812 1023.96875 297.460938 1023.910156 298.25 C 1023.851562 299.039062 1023.695312 300.058594 1023.457031 301.277344 L 953.621094 301.277344 C 954.726562 307.511719 957.4375 312.429688 961.773438 316.027344 C 966.113281 319.628906 971.699219 321.445312 978.542969 321.445312 C 983.1875 321.445312 987.308594 320.589844 990.914062 318.882812 C 994.523438 317.171875 997.425781 314.667969 999.621094 311.367188 L 1021.613281 311.367188 C 1020.148438 316.011719 1018.066406 320.199219 1015.386719 323.921875 C 1012.707031 327.648438 1009.492188 330.832031 1005.765625 333.453125 C 1002.042969 336.074219 997.890625 338.097656 993.304688 339.496094 C 988.71875 340.898438 983.800781 341.605469 978.550781 341.605469 C 971.949219 341.605469 965.871094 340.476562 960.316406 338.210938 C 954.757812 335.949219 949.949219 332.804688 945.917969 328.773438 C 941.890625 324.746094 938.738281 319.917969 936.480469 314.296875 C 934.226562 308.671875 933.089844 302.503906 933.089844 295.785156 " clip-rule="nonzero"/></clipPath><clipPath id="dfb585843e"><path d="M 0 0.960938 L 91 0.960938 L 91 92.734375 L 0 92.734375 Z M 0 0.960938 " clip-rule="nonzero"/></clipPath><clipPath id="167ba1057e"><path d="M 69.558594 37.625 C 67.839844 32.488281 64.914062 28.460938 60.757812 25.523438 C 56.605469 22.589844 51.53125 21.128906 45.550781 21.128906 C 39.4375 21.128906 34.304688 22.597656 30.152344 25.523438 C 25.996094 28.453125 23.128906 32.488281 21.535156 37.625 Z M 0.0898438 46.785156 C 0.0898438 40.1875 1.21875 34.082031 3.480469 28.460938 C 5.746094 22.835938 8.890625 17.984375 12.917969 13.890625 C 16.949219 9.792969 21.75 6.617188 27.308594 4.351562 C 32.863281 2.089844 38.949219 0.960938 45.542969 0.960938 C 52.136719 0.960938 58.222656 2.089844 63.785156 4.351562 C 69.351562 6.617188 74.144531 9.792969 78.175781 13.882812 C 82.203125 17.96875 85.347656 22.835938 87.609375 28.453125 C 89.875 34.066406 91.003906 40.1875 91.003906 46.777344 C 91.003906 47.632812 90.96875 48.460938 90.910156 49.25 C 90.851562 50.039062 90.695312 51.058594 90.457031 52.277344 L 20.621094 52.277344 C 21.726562 58.511719 24.4375 63.429688 28.773438 67.027344 C 33.113281 70.628906 38.699219 72.445312 45.542969 72.445312 C 50.1875 72.445312 54.308594 71.589844 57.914062 69.882812 C 61.523438 68.171875 64.425781 65.667969 66.621094 62.367188 L 88.613281 62.367188 C 87.148438 67.011719 85.066406 71.199219 82.386719 74.921875 C 79.707031 78.648438 76.492188 81.832031 72.765625 84.453125 C 69.042969 87.074219 64.890625 89.097656 60.304688 90.496094 C 55.71875 91.898438 50.800781 92.605469 45.550781 92.605469 C 38.949219 92.605469 32.871094 91.476562 27.316406 89.210938 C 21.757812 86.949219 16.949219 83.804688 12.917969 79.773438 C 8.890625 75.746094 5.738281 70.917969 3.480469 65.296875 C 1.226562 59.671875 0.0898438 53.503906 0.0898438 46.785156 " clip-rule="nonzero"/></clipPath><clipPath id="13743a001f"><rect x="0" width="91" y="0" height="93"/></clipPath></defs><g clip-path="url(#7580171f18)"><g clip-path="url(#b40cb4636a)"><g transform="matrix(1, 0, 0, 1, 4, 219)"><g clip-path="url(#3b151b3aca)"><g clip-path="url(#01601d5721)"><g clip-path="url(#aac5258849)"><rect x="-229.39" width="1475.28" fill="#ffffff" height="829.44" y="-345.72" fill-opacity="1"/></g></g></g></g></g></g><g clip-path="url(#63afdedcc0)"><g clip-path="url(#c2549baf33)"><g transform="matrix(1, 0, 0, 1, 23, 219)"><g clip-path="url(#02ba96ca15)"><g clip-path="url(#8a10506802)"><g clip-path="url(#a439099d8b)"><rect x="-248.39" width="1475.28" fill="#ffffff" height="829.44" y="-345.72" fill-opacity="1"/></g></g></g></g></g></g><g clip-path="url(#0845561609)"><g clip-path="url(#189497c70e)"><g transform="matrix(1, 0, 0, 1, 42, 219)"><g clip-path="url(#c396579069)"><g clip-path="url(#3ec77932be)"><g clip-path="url(#082bde650b)"><rect x="-267.39" width="1475.28" fill="#ffffff" height="829.44" y="-345.72" fill-opacity="1"/></g></g></g></g></g></g><g clip-path="url(#6b51b3a5e8)"><g clip-path="url(#4fe5adc97b)"><g transform="matrix(1, 0, 0, 1, 221, 219)"><g clip-path="url(#577a2de1cb)"><g clip-path="url(#f647d38a63)"><g clip-path="url(#85fbc29707)"><rect x="-446.39" width="1475.28" fill="#ffffff" height="829.44" y="-345.72" fill-opacity="1"/></g></g></g></g></g></g><g clip-path="url(#a9e3d1f64c)"><g clip-path="url(#b2ee6d0e71)"><g transform="matrix(1, 0, 0, 1, 202, 219)"><g clip-path="url(#ac760e058a)"><g clip-path="url(#bb3907e89a)"><g clip-path="url(#726adc9510)"><rect x="-427.39" width="1475.28" fill="#ffffff" height="829.44" y="-345.72" fill-opacity="1"/></g></g></g></g></g></g><g clip-path="url(#7b2f508d7c)"><g clip-path="url(#163e6a4d92)"><g transform="matrix(1, 0, 0, 1, 118, 286)"><g clip-path="url(#fd91b692cf)"><g clip-path="url(#901331158b)"><g clip-path="url(#fc1812a3cb)"><rect x="-343.39" width="1475.28" fill="#ffffff" height="829.44" y="-412.72" fill-opacity="1"/></g></g></g></g></g></g><g clip-path="url(#7e16cc534c)"><g clip-path="url(#54d3f4c854)"><g transform="matrix(1, 0, 0, 1, 151, 219)"><g clip-path="url(#66d9d74ef2)"><g clip-path="url(#3c6d796cb2)"><g clip-path="url(#6e2cf50479)"><rect x="-376.39" width="1475.28" fill="#ffffff" height="829.44" y="-345.72" fill-opacity="1"/></g></g></g></g></g></g><g clip-path="url(#ee23948423)"><g transform="matrix(1, 0, 0, 1, 76, 200)"><g clip-path="url(#272f71af6e)"><g clip-path="url(#b8bf2b7141)"><rect x="-301.39" width="1475.28" fill="#ffffff" height="829.44" y="-326.72" fill-opacity="1"/></g></g></g></g><g clip-path="url(#7a30e9622b)"><g clip-path="url(#681f38422d)"><g transform="matrix(1, 0, 0, 1, 117, 203)"><g clip-path="url(#a2fbeea832)"><g clip-path="url(#5d724a29ac)"><g clip-path="url(#7afbfb0c91)"><rect x="-342.39" width="1475.28" fill="#ffffff" height="829.44" y="-329.72" fill-opacity="1"/></g></g></g></g></g></g><g clip-path="url(#5a204b5ca6)"><g clip-path="url(#6e0eb62984)"><g transform="matrix(1, 0, 0, 1, 348, 216)"><g clip-path="url(#22aa8682d5)"><g clip-path="url(#b6c7af3e2a)"><g clip-path="url(#2e8913de82)"><path fill="#ffffff" d="M 0.917969 0.96875 L 22.945312 0.96875 L 22.945312 123.765625 L 0.917969 123.765625 Z M 0.917969 0.96875 " fill-opacity="1" fill-rule="nonzero"/></g></g></g></g></g></g><g clip-path="url(#19ad7ced8e)"><g clip-path="url(#e380179463)"><g transform="matrix(1, 0, 0, 1, 384, 249)"><g clip-path="url(#035867aab2)"><g clip-path="url(#019821e144)"><g clip-path="url(#f28214d80d)"><path fill="#ffffff" d="M 0.15625 0.960938 L 91.066406 0.960938 L 91.066406 92.582031 L 0.15625 92.582031 Z M 0.15625 0.960938 " fill-opacity="1" fill-rule="nonzero"/></g></g></g></g></g></g><g clip-path="url(#c09c02640d)"><g clip-path="url(#0c4a084d71)"><g transform="matrix(1, 0, 0, 1, 486, 251)"><g clip-path="url(#679f927a4d)"><g clip-path="url(#d34471fad8)"><g clip-path="url(#f239c333c5)"><path fill="#ffffff" d="M 0.0625 0.792969 L 89.871094 0.792969 L 89.871094 127.089844 L 0.0625 127.089844 Z M 0.0625 0.792969 " fill-opacity="1" fill-rule="nonzero"/></g></g></g></g></g></g><g clip-path="url(#6611b2d740)"><g transform="matrix(1, 0, 0, 1, 594, 251)"><g clip-path="url(#2d9c0d53c6)"><g clip-path="url(#b566b136fb)"><rect x="-819.39" width="1475.28" fill="#ffffff" height="829.44" y="-377.72" fill-opacity="1"/></g></g></g></g><g clip-path="url(#6a98765ac9)"><g clip-path="url(#b7c27a4553)"><g transform="matrix(1, 0, 0, 1, 590, 219)"><g clip-path="url(#79b75d71cb)"><g clip-path="url(#b07e7418f4)"><g clip-path="url(#ea0385120a)"><rect x="-815.39" width="1475.28" fill="#ffffff" height="829.44" y="-345.72" fill-opacity="1"/></g></g></g></g></g></g><g clip-path="url(#2704c00ebe)"><g clip-path="url(#d565cf4f00)"><g transform="matrix(1, 0, 0, 1, 629, 249)"><g clip-path="url(#7173ec697d)"><g clip-path="url(#069c71a05c)"><g clip-path="url(#6252dc793d)"><path fill="#ffffff" d="M 0.0234375 0.960938 L 90.933594 0.960938 L 90.933594 92.582031 L 0.0234375 92.582031 Z M 0.0234375 0.960938 " fill-opacity="1" fill-rule="nonzero"/></g></g></g></g></g></g><g clip-path="url(#8bd7c0c935)"><g clip-path="url(#a38ec9048e)"><g transform="matrix(1, 0, 0, 1, 734, 249)"><g clip-path="url(#6b2f3d7db1)"><g clip-path="url(#6583142a40)"><g clip-path="url(#bba16ee201)"><path fill="#ffffff" d="M 0.59375 0.960938 L 82.890625 0.960938 L 82.890625 90.652344 L 0.59375 90.652344 Z M 0.59375 0.960938 " fill-opacity="1" fill-rule="nonzero"/></g></g></g></g></g></g><g clip-path="url(#3365f4c630)"><g clip-path="url(#d807f54daa)"><g transform="matrix(1, 0, 0, 1, 831, 249)"><g clip-path="url(#3cc4fb458a)"><g clip-path="url(#4a452217f5)"><g clip-path="url(#f5be182479)"><path fill="#ffffff" d="M 0.550781 0.960938 L 91.097656 0.960938 L 91.097656 92.566406 L 0.550781 92.566406 Z M 0.550781 0.960938 " fill-opacity="1" fill-rule="nonzero"/></g></g></g></g></g></g><g clip-path="url(#171abcf829)"><g clip-path="url(#42a58969cd)"><g transform="matrix(1, 0, 0, 1, 933, 249)"><g clip-path="url(#13743a001f)"><g clip-path="url(#dfb585843e)"><g clip-path="url(#167ba1057e)"><path fill="#ffffff" d="M 0.0898438 0.960938 L 91 0.960938 L 91 92.582031 L 0.0898438 92.582031 Z M 0.0898438 0.960938 " fill-opacity="1" fill-rule="nonzero"/></g></g></g></g></g></g></svg>