<svg xmlns="http://www.w3.org/2000/svg" xmlns:xlink="http://www.w3.org/1999/xlink" zoomAndPan="magnify" viewBox="25 550 1470 310" preserveAspectRatio="xMidYMid meet" version="1.0"><defs><g/><clipPath id="f9e77be778"><path d="M 43.179688 566.714844 L 319.929688 566.714844 L 319.929688 843.464844 L 43.179688 843.464844 Z M 43.179688 566.714844 " clip-rule="nonzero"/></clipPath></defs><g clip-path="url(#f9e77be778)"><path fill="#ffffff" d="M 299.246094 658.6875 L 292.589844 653.773438 L 258.324219 628.476562 L 233.007812 594.203125 L 228.085938 587.550781 L 212.707031 566.714844 L 150.550781 566.714844 L 135.152344 587.550781 L 130.238281 594.203125 L 104.921875 628.476562 L 70.660156 653.773438 L 64.007812 658.714844 L 43.179688 674.101562 L 43.179688 736.242188 L 64.015625 751.644531 L 70.667969 756.5625 L 104.929688 781.859375 L 130.246094 816.132812 L 135.1875 822.78125 L 150.558594 843.617188 L 212.714844 843.617188 L 228.109375 822.78125 L 233.023438 816.132812 L 258.339844 781.859375 L 292.605469 756.5625 L 299.261719 751.621094 L 320.101562 736.242188 L 320.101562 674.085938 L 299.261719 658.6875 Z M 296.519531 709.902344 C 295.40625 711.015625 294.785156 711.636719 293.671875 712.75 L 261.222656 712.75 L 219.871094 742.996094 L 219.871094 743.421875 L 219.445312 743.421875 L 189.199219 784.78125 L 189.199219 817.214844 L 186.347656 820.0625 L 176.882812 820.0625 C 175.769531 818.949219 175.15625 818.328125 174.050781 817.214844 L 174.050781 784.765625 L 143.804688 743.414062 L 143.375 743.414062 L 143.375 742.988281 L 102.019531 712.742188 L 69.570312 712.742188 C 68.457031 711.628906 67.84375 711.007812 66.738281 709.890625 L 66.738281 700.433594 C 67.851562 699.320312 68.464844 698.699219 69.570312 697.585938 L 102.027344 697.585938 L 143.375 667.339844 L 143.375 666.910156 L 143.804688 666.910156 L 174.050781 625.554688 L 174.050781 593.121094 C 175.164062 592.007812 175.777344 591.386719 176.882812 590.273438 L 186.347656 590.273438 C 187.460938 591.386719 188.082031 592.007812 189.199219 593.121094 L 189.199219 625.570312 L 219.445312 666.921875 L 219.871094 666.921875 L 219.871094 667.347656 L 261.230469 697.59375 L 293.664062 697.59375 L 296.511719 700.441406 L 296.511719 709.902344 Z M 296.519531 709.902344 " fill-opacity="1" fill-rule="nonzero"/></g><g fill="#ffffff" fill-opacity="0.4"><g transform="translate(387.537833, 813.449094)"><g><path d="M 18.828125 0 L 18.828125 -197.765625 L 58.125 -197.765625 L 58.125 0 Z M 18.828125 0 "/></g></g></g><g fill="#ffffff" fill-opacity="0.4"><g transform="translate(451.041539, 813.449094)"><g><path d="M 159.828125 -73.1875 C 159.828125 -69.414062 159.5625 -65.5625 159.03125 -61.625 L 49.234375 -61.625 C 50.847656 -51.75 54.796875 -44.164062 61.078125 -38.875 C 67.359375 -33.582031 75.253906 -30.9375 84.765625 -30.9375 C 91.578125 -30.9375 97.671875 -32.414062 103.046875 -35.375 C 108.429688 -38.34375 112.5625 -42.425781 115.4375 -47.625 L 156.875 -47.625 C 151.488281 -31.84375 142.335938 -19.285156 129.421875 -9.953125 C 116.503906 -0.628906 101.617188 4.03125 84.765625 4.03125 C 70.410156 4.03125 57.535156 0.671875 46.140625 -6.046875 C 34.753906 -12.773438 25.785156 -21.925781 19.234375 -33.5 C 12.691406 -45.070312 9.421875 -58.125 9.421875 -72.65625 C 9.421875 -87.1875 12.691406 -100.234375 19.234375 -111.796875 C 25.785156 -123.367188 34.753906 -132.519531 46.140625 -139.25 C 57.535156 -145.976562 70.410156 -149.34375 84.765625 -149.34375 C 99.648438 -149.34375 112.742188 -145.890625 124.046875 -138.984375 C 135.347656 -132.078125 144.132812 -122.878906 150.40625 -111.390625 C 156.6875 -99.910156 159.828125 -87.175781 159.828125 -73.1875 Z M 84.765625 -115.96875 C 75.972656 -115.96875 68.570312 -113.546875 62.5625 -108.703125 C 56.550781 -103.859375 52.46875 -97.132812 50.3125 -88.53125 L 120.546875 -88.53125 C 114.804688 -106.820312 102.878906 -115.96875 84.765625 -115.96875 Z M 84.765625 -115.96875 "/></g></g></g><g fill="#ffffff" fill-opacity="0.4"><g transform="translate(606.572101, 813.449094)"><g><path d="M 136.15625 -145.296875 L 161.71875 -145.296875 L 161.71875 -16.953125 C 161.71875 -1.703125 158.710938 11.390625 152.703125 22.328125 C 146.691406 33.273438 138.125 41.707031 127 47.625 C 115.882812 53.539062 102.703125 56.5 87.453125 56.5 C 67.722656 56.5 51.265625 51.742188 38.078125 42.234375 C 24.890625 32.734375 16.679688 19.734375 13.453125 3.234375 L 52.46875 3.234375 C 54.625 9.691406 59.0625 14.578125 65.78125 17.890625 C 72.507812 21.210938 79.460938 22.875 86.640625 22.875 C 96.691406 22.875 105.257812 19.867188 112.34375 13.859375 C 119.425781 7.847656 122.96875 -0.535156 122.96875 -11.296875 L 122.96875 -16.6875 C 117.226562 -12.5625 110.859375 -9.375 103.859375 -7.125 C 96.867188 -4.882812 89.425781 -3.765625 81.53125 -3.765625 C 68.070312 -3.765625 55.867188 -6.992188 44.921875 -13.453125 C 33.984375 -19.910156 25.332031 -28.609375 18.96875 -39.546875 C 12.601562 -50.492188 9.421875 -62.785156 9.421875 -76.421875 C 9.421875 -90.054688 12.601562 -102.390625 18.96875 -113.421875 C 25.332031 -124.453125 33.984375 -133.195312 44.921875 -139.65625 C 55.867188 -146.113281 68.070312 -149.34375 81.53125 -149.34375 C 91.039062 -149.34375 99.921875 -147.726562 108.171875 -144.5 C 116.421875 -141.269531 123.6875 -136.691406 129.96875 -130.765625 Z M 86.109375 -38.75 C 96.867188 -38.75 105.742188 -42.289062 112.734375 -49.375 C 119.734375 -56.457031 123.234375 -65.472656 123.234375 -76.421875 C 123.234375 -87.179688 119.78125 -96.101562 112.875 -103.1875 C 105.96875 -110.269531 97.046875 -113.8125 86.109375 -113.8125 C 75.523438 -113.8125 66.734375 -110.269531 59.734375 -103.1875 C 52.734375 -96.101562 49.234375 -87.179688 49.234375 -76.421875 C 49.234375 -65.472656 52.6875 -56.457031 59.59375 -49.375 C 66.5 -42.289062 75.335938 -38.75 86.109375 -38.75 Z M 86.109375 -38.75 "/></g></g></g><g fill="#ffffff" fill-opacity="0.4"><g transform="translate(773.673362, 813.449094)"><g><path d="M 18.828125 -164.671875 L 18.828125 -201.265625 L 58.125 -201.265625 L 58.125 -164.671875 Z M 18.828125 0 L 18.828125 -145.296875 L 58.125 -145.296875 L 58.125 0 Z M 18.828125 0 "/></g></g></g><g fill="#ffffff" fill-opacity="0.4"><g transform="translate(837.177034, 813.449094)"><g><path d="M 159.828125 -73.1875 C 159.828125 -69.414062 159.5625 -65.5625 159.03125 -61.625 L 49.234375 -61.625 C 50.847656 -51.75 54.796875 -44.164062 61.078125 -38.875 C 67.359375 -33.582031 75.253906 -30.9375 84.765625 -30.9375 C 91.578125 -30.9375 97.671875 -32.414062 103.046875 -35.375 C 108.429688 -38.34375 112.5625 -42.425781 115.4375 -47.625 L 156.875 -47.625 C 151.488281 -31.84375 142.335938 -19.285156 129.421875 -9.953125 C 116.503906 -0.628906 101.617188 4.03125 84.765625 4.03125 C 70.410156 4.03125 57.535156 0.671875 46.140625 -6.046875 C 34.753906 -12.773438 25.785156 -21.925781 19.234375 -33.5 C 12.691406 -45.070312 9.421875 -58.125 9.421875 -72.65625 C 9.421875 -87.1875 12.691406 -100.234375 19.234375 -111.796875 C 25.785156 -123.367188 34.753906 -132.519531 46.140625 -139.25 C 57.535156 -145.976562 70.410156 -149.34375 84.765625 -149.34375 C 99.648438 -149.34375 112.742188 -145.890625 124.046875 -138.984375 C 135.347656 -132.078125 144.132812 -122.878906 150.40625 -111.390625 C 156.6875 -99.910156 159.828125 -87.175781 159.828125 -73.1875 Z M 84.765625 -115.96875 C 75.972656 -115.96875 68.570312 -113.546875 62.5625 -108.703125 C 56.550781 -103.859375 52.46875 -97.132812 50.3125 -88.53125 L 120.546875 -88.53125 C 114.804688 -106.820312 102.878906 -115.96875 84.765625 -115.96875 Z M 84.765625 -115.96875 "/></g></g></g><g fill="#ffffff" fill-opacity="0.4"><g transform="translate(992.707633, 813.449094)"><g><path d="M 101.71875 -148.796875 C 118.21875 -148.796875 131.265625 -143.28125 140.859375 -132.25 C 150.460938 -121.21875 155.265625 -106.460938 155.265625 -87.984375 L 155.265625 0 L 115.96875 0 L 115.96875 -81.796875 C 115.96875 -103.503906 107.535156 -114.359375 90.671875 -114.359375 C 80.628906 -114.359375 72.691406 -110.945312 66.859375 -104.125 C 61.035156 -97.3125 58.125 -88.078125 58.125 -76.421875 L 58.125 0 L 18.828125 0 L 18.828125 -145.296875 L 45.75 -145.296875 L 53.546875 -127.28125 C 58.929688 -133.914062 65.835938 -139.160156 74.265625 -143.015625 C 82.691406 -146.867188 91.84375 -148.796875 101.71875 -148.796875 Z M 101.71875 -148.796875 "/></g></g></g><g fill="#ffffff" fill-opacity="0.4"><g transform="translate(1151.736321, 813.449094)"><g><path d="M 86.375 4.03125 C 71.84375 4.03125 58.742188 0.625 47.078125 -6.1875 C 35.421875 -13 26.226562 -22.234375 19.5 -33.890625 C 12.78125 -45.554688 9.421875 -58.65625 9.421875 -73.1875 C 9.421875 -87.71875 12.78125 -100.722656 19.5 -112.203125 C 26.226562 -123.679688 35.421875 -132.738281 47.078125 -139.375 C 58.742188 -146.019531 71.929688 -149.34375 86.640625 -149.34375 C 99.203125 -149.34375 110.640625 -146.875 120.953125 -141.9375 C 131.265625 -137 139.875 -130.046875 146.78125 -121.078125 C 153.6875 -112.109375 158.304688 -101.707031 160.640625 -89.875 L 121.625 -89.875 C 118.394531 -97.050781 113.6875 -102.609375 107.5 -106.546875 C 101.3125 -110.492188 94.269531 -112.46875 86.375 -112.46875 C 79.375 -112.46875 73.046875 -110.71875 67.390625 -107.21875 C 61.742188 -103.726562 57.304688 -99.019531 54.078125 -93.09375 C 50.847656 -87.175781 49.234375 -80.453125 49.234375 -72.921875 C 49.234375 -65.390625 50.847656 -58.617188 54.078125 -52.609375 C 57.304688 -46.597656 61.742188 -41.796875 67.390625 -38.203125 C 73.046875 -34.617188 79.375 -32.828125 86.375 -32.828125 C 94.445312 -32.828125 101.488281 -34.929688 107.5 -39.140625 C 113.507812 -43.359375 118.21875 -49.414062 121.625 -57.3125 L 161.171875 -57.3125 C 158.847656 -45.113281 154.1875 -34.394531 147.1875 -25.15625 C 140.1875 -15.914062 131.484375 -8.738281 121.078125 -3.625 C 110.679688 1.476562 99.113281 4.03125 86.375 4.03125 Z M 86.375 4.03125 "/></g></g></g><g fill="#ffffff" fill-opacity="0.4"><g transform="translate(1306.459696, 813.449094)"><g><path d="M 159.828125 -73.1875 C 159.828125 -69.414062 159.5625 -65.5625 159.03125 -61.625 L 49.234375 -61.625 C 50.847656 -51.75 54.796875 -44.164062 61.078125 -38.875 C 67.359375 -33.582031 75.253906 -30.9375 84.765625 -30.9375 C 91.578125 -30.9375 97.671875 -32.414062 103.046875 -35.375 C 108.429688 -38.34375 112.5625 -42.425781 115.4375 -47.625 L 156.875 -47.625 C 151.488281 -31.84375 142.335938 -19.285156 129.421875 -9.953125 C 116.503906 -0.628906 101.617188 4.03125 84.765625 4.03125 C 70.410156 4.03125 57.535156 0.671875 46.140625 -6.046875 C 34.753906 -12.773438 25.785156 -21.925781 19.234375 -33.5 C 12.691406 -45.070312 9.421875 -58.125 9.421875 -72.65625 C 9.421875 -87.1875 12.691406 -100.234375 19.234375 -111.796875 C 25.785156 -123.367188 34.753906 -132.519531 46.140625 -139.25 C 57.535156 -145.976562 70.410156 -149.34375 84.765625 -149.34375 C 99.648438 -149.34375 112.742188 -145.890625 124.046875 -138.984375 C 135.347656 -132.078125 144.132812 -122.878906 150.40625 -111.390625 C 156.6875 -99.910156 159.828125 -87.175781 159.828125 -73.1875 Z M 84.765625 -115.96875 C 75.972656 -115.96875 68.570312 -113.546875 62.5625 -108.703125 C 56.550781 -103.859375 52.46875 -97.132812 50.3125 -88.53125 L 120.546875 -88.53125 C 114.804688 -106.820312 102.878906 -115.96875 84.765625 -115.96875 Z M 84.765625 -115.96875 "/></g></g></g><g fill="#ffffff" fill-opacity="1"><g transform="translate(375.645647, 801.556903)"><g><path d="M 18.828125 0 L 18.828125 -197.765625 L 58.125 -197.765625 L 58.125 0 Z M 18.828125 0 "/></g></g></g><g fill="#ffffff" fill-opacity="1"><g transform="translate(439.149353, 801.556903)"><g><path d="M 159.828125 -73.1875 C 159.828125 -69.414062 159.5625 -65.5625 159.03125 -61.625 L 49.234375 -61.625 C 50.847656 -51.75 54.796875 -44.164062 61.078125 -38.875 C 67.359375 -33.582031 75.253906 -30.9375 84.765625 -30.9375 C 91.578125 -30.9375 97.671875 -32.414062 103.046875 -35.375 C 108.429688 -38.34375 112.5625 -42.425781 115.4375 -47.625 L 156.875 -47.625 C 151.488281 -31.84375 142.335938 -19.285156 129.421875 -9.953125 C 116.503906 -0.628906 101.617188 4.03125 84.765625 4.03125 C 70.410156 4.03125 57.535156 0.671875 46.140625 -6.046875 C 34.753906 -12.773438 25.785156 -21.925781 19.234375 -33.5 C 12.691406 -45.070312 9.421875 -58.125 9.421875 -72.65625 C 9.421875 -87.1875 12.691406 -100.234375 19.234375 -111.796875 C 25.785156 -123.367188 34.753906 -132.519531 46.140625 -139.25 C 57.535156 -145.976562 70.410156 -149.34375 84.765625 -149.34375 C 99.648438 -149.34375 112.742188 -145.890625 124.046875 -138.984375 C 135.347656 -132.078125 144.132812 -122.878906 150.40625 -111.390625 C 156.6875 -99.910156 159.828125 -87.175781 159.828125 -73.1875 Z M 84.765625 -115.96875 C 75.972656 -115.96875 68.570312 -113.546875 62.5625 -108.703125 C 56.550781 -103.859375 52.46875 -97.132812 50.3125 -88.53125 L 120.546875 -88.53125 C 114.804688 -106.820312 102.878906 -115.96875 84.765625 -115.96875 Z M 84.765625 -115.96875 "/></g></g></g><g fill="#ffffff" fill-opacity="1"><g transform="translate(594.679915, 801.556903)"><g><path d="M 136.15625 -145.296875 L 161.71875 -145.296875 L 161.71875 -16.953125 C 161.71875 -1.703125 158.710938 11.390625 152.703125 22.328125 C 146.691406 33.273438 138.125 41.707031 127 47.625 C 115.882812 53.539062 102.703125 56.5 87.453125 56.5 C 67.722656 56.5 51.265625 51.742188 38.078125 42.234375 C 24.890625 32.734375 16.679688 19.734375 13.453125 3.234375 L 52.46875 3.234375 C 54.625 9.691406 59.0625 14.578125 65.78125 17.890625 C 72.507812 21.210938 79.460938 22.875 86.640625 22.875 C 96.691406 22.875 105.257812 19.867188 112.34375 13.859375 C 119.425781 7.847656 122.96875 -0.535156 122.96875 -11.296875 L 122.96875 -16.6875 C 117.226562 -12.5625 110.859375 -9.375 103.859375 -7.125 C 96.867188 -4.882812 89.425781 -3.765625 81.53125 -3.765625 C 68.070312 -3.765625 55.867188 -6.992188 44.921875 -13.453125 C 33.984375 -19.910156 25.332031 -28.609375 18.96875 -39.546875 C 12.601562 -50.492188 9.421875 -62.785156 9.421875 -76.421875 C 9.421875 -90.054688 12.601562 -102.390625 18.96875 -113.421875 C 25.332031 -124.453125 33.984375 -133.195312 44.921875 -139.65625 C 55.867188 -146.113281 68.070312 -149.34375 81.53125 -149.34375 C 91.039062 -149.34375 99.921875 -147.726562 108.171875 -144.5 C 116.421875 -141.269531 123.6875 -136.691406 129.96875 -130.765625 Z M 86.109375 -38.75 C 96.867188 -38.75 105.742188 -42.289062 112.734375 -49.375 C 119.734375 -56.457031 123.234375 -65.472656 123.234375 -76.421875 C 123.234375 -87.179688 119.78125 -96.101562 112.875 -103.1875 C 105.96875 -110.269531 97.046875 -113.8125 86.109375 -113.8125 C 75.523438 -113.8125 66.734375 -110.269531 59.734375 -103.1875 C 52.734375 -96.101562 49.234375 -87.179688 49.234375 -76.421875 C 49.234375 -65.472656 52.6875 -56.457031 59.59375 -49.375 C 66.5 -42.289062 75.335938 -38.75 86.109375 -38.75 Z M 86.109375 -38.75 "/></g></g></g><g fill="#ffffff" fill-opacity="1"><g transform="translate(761.781175, 801.556903)"><g><path d="M 18.828125 -164.671875 L 18.828125 -201.265625 L 58.125 -201.265625 L 58.125 -164.671875 Z M 18.828125 0 L 18.828125 -145.296875 L 58.125 -145.296875 L 58.125 0 Z M 18.828125 0 "/></g></g></g><g fill="#ffffff" fill-opacity="1"><g transform="translate(825.284847, 801.556903)"><g><path d="M 159.828125 -73.1875 C 159.828125 -69.414062 159.5625 -65.5625 159.03125 -61.625 L 49.234375 -61.625 C 50.847656 -51.75 54.796875 -44.164062 61.078125 -38.875 C 67.359375 -33.582031 75.253906 -30.9375 84.765625 -30.9375 C 91.578125 -30.9375 97.671875 -32.414062 103.046875 -35.375 C 108.429688 -38.34375 112.5625 -42.425781 115.4375 -47.625 L 156.875 -47.625 C 151.488281 -31.84375 142.335938 -19.285156 129.421875 -9.953125 C 116.503906 -0.628906 101.617188 4.03125 84.765625 4.03125 C 70.410156 4.03125 57.535156 0.671875 46.140625 -6.046875 C 34.753906 -12.773438 25.785156 -21.925781 19.234375 -33.5 C 12.691406 -45.070312 9.421875 -58.125 9.421875 -72.65625 C 9.421875 -87.1875 12.691406 -100.234375 19.234375 -111.796875 C 25.785156 -123.367188 34.753906 -132.519531 46.140625 -139.25 C 57.535156 -145.976562 70.410156 -149.34375 84.765625 -149.34375 C 99.648438 -149.34375 112.742188 -145.890625 124.046875 -138.984375 C 135.347656 -132.078125 144.132812 -122.878906 150.40625 -111.390625 C 156.6875 -99.910156 159.828125 -87.175781 159.828125 -73.1875 Z M 84.765625 -115.96875 C 75.972656 -115.96875 68.570312 -113.546875 62.5625 -108.703125 C 56.550781 -103.859375 52.46875 -97.132812 50.3125 -88.53125 L 120.546875 -88.53125 C 114.804688 -106.820312 102.878906 -115.96875 84.765625 -115.96875 Z M 84.765625 -115.96875 "/></g></g></g><g fill="#ffffff" fill-opacity="1"><g transform="translate(980.815446, 801.556903)"><g><path d="M 101.71875 -148.796875 C 118.21875 -148.796875 131.265625 -143.28125 140.859375 -132.25 C 150.460938 -121.21875 155.265625 -106.460938 155.265625 -87.984375 L 155.265625 0 L 115.96875 0 L 115.96875 -81.796875 C 115.96875 -103.503906 107.535156 -114.359375 90.671875 -114.359375 C 80.628906 -114.359375 72.691406 -110.945312 66.859375 -104.125 C 61.035156 -97.3125 58.125 -88.078125 58.125 -76.421875 L 58.125 0 L 18.828125 0 L 18.828125 -145.296875 L 45.75 -145.296875 L 53.546875 -127.28125 C 58.929688 -133.914062 65.835938 -139.160156 74.265625 -143.015625 C 82.691406 -146.867188 91.84375 -148.796875 101.71875 -148.796875 Z M 101.71875 -148.796875 "/></g></g></g><g fill="#ffffff" fill-opacity="1"><g transform="translate(1139.844135, 801.556903)"><g><path d="M 86.375 4.03125 C 71.84375 4.03125 58.742188 0.625 47.078125 -6.1875 C 35.421875 -13 26.226562 -22.234375 19.5 -33.890625 C 12.78125 -45.554688 9.421875 -58.65625 9.421875 -73.1875 C 9.421875 -87.71875 12.78125 -100.722656 19.5 -112.203125 C 26.226562 -123.679688 35.421875 -132.738281 47.078125 -139.375 C 58.742188 -146.019531 71.929688 -149.34375 86.640625 -149.34375 C 99.203125 -149.34375 110.640625 -146.875 120.953125 -141.9375 C 131.265625 -137 139.875 -130.046875 146.78125 -121.078125 C 153.6875 -112.109375 158.304688 -101.707031 160.640625 -89.875 L 121.625 -89.875 C 118.394531 -97.050781 113.6875 -102.609375 107.5 -106.546875 C 101.3125 -110.492188 94.269531 -112.46875 86.375 -112.46875 C 79.375 -112.46875 73.046875 -110.71875 67.390625 -107.21875 C 61.742188 -103.726562 57.304688 -99.019531 54.078125 -93.09375 C 50.847656 -87.175781 49.234375 -80.453125 49.234375 -72.921875 C 49.234375 -65.390625 50.847656 -58.617188 54.078125 -52.609375 C 57.304688 -46.597656 61.742188 -41.796875 67.390625 -38.203125 C 73.046875 -34.617188 79.375 -32.828125 86.375 -32.828125 C 94.445312 -32.828125 101.488281 -34.929688 107.5 -39.140625 C 113.507812 -43.359375 118.21875 -49.414062 121.625 -57.3125 L 161.171875 -57.3125 C 158.847656 -45.113281 154.1875 -34.394531 147.1875 -25.15625 C 140.1875 -15.914062 131.484375 -8.738281 121.078125 -3.625 C 110.679688 1.476562 99.113281 4.03125 86.375 4.03125 Z M 86.375 4.03125 "/></g></g></g><g fill="#ffffff" fill-opacity="1"><g transform="translate(1294.567509, 801.556903)"><g><path d="M 159.828125 -73.1875 C 159.828125 -69.414062 159.5625 -65.5625 159.03125 -61.625 L 49.234375 -61.625 C 50.847656 -51.75 54.796875 -44.164062 61.078125 -38.875 C 67.359375 -33.582031 75.253906 -30.9375 84.765625 -30.9375 C 91.578125 -30.9375 97.671875 -32.414062 103.046875 -35.375 C 108.429688 -38.34375 112.5625 -42.425781 115.4375 -47.625 L 156.875 -47.625 C 151.488281 -31.84375 142.335938 -19.285156 129.421875 -9.953125 C 116.503906 -0.628906 101.617188 4.03125 84.765625 4.03125 C 70.410156 4.03125 57.535156 0.671875 46.140625 -6.046875 C 34.753906 -12.773438 25.785156 -21.925781 19.234375 -33.5 C 12.691406 -45.070312 9.421875 -58.125 9.421875 -72.65625 C 9.421875 -87.1875 12.691406 -100.234375 19.234375 -111.796875 C 25.785156 -123.367188 34.753906 -132.519531 46.140625 -139.25 C 57.535156 -145.976562 70.410156 -149.34375 84.765625 -149.34375 C 99.648438 -149.34375 112.742188 -145.890625 124.046875 -138.984375 C 135.347656 -132.078125 144.132812 -122.878906 150.40625 -111.390625 C 156.6875 -99.910156 159.828125 -87.175781 159.828125 -73.1875 Z M 84.765625 -115.96875 C 75.972656 -115.96875 68.570312 -113.546875 62.5625 -108.703125 C 56.550781 -103.859375 52.46875 -97.132812 50.3125 -88.53125 L 120.546875 -88.53125 C 114.804688 -106.820312 102.878906 -115.96875 84.765625 -115.96875 Z M 84.765625 -115.96875 "/></g></g></g></svg>