<svg xmlns="http://www.w3.org/2000/svg" xmlns:xlink="http://www.w3.org/1999/xlink" zoomAndPan="magnify" viewBox="40 595 1470 315" preserveAspectRatio="xMidYMid meet" version="1.0"><defs><g/><clipPath id="532167612c"><path d="M 60.722656 616.957031 L 326.972656 616.957031 L 326.972656 883.207031 L 60.722656 883.207031 Z M 60.722656 616.957031 " clip-rule="nonzero"/></clipPath><clipPath id="d01b1ad367"><rect x="0" width="1096" y="0" height="273"/></clipPath></defs><g clip-path="url(#532167612c)"><path fill="#0164ff" d="M 306.796875 705.34375 L 300.398438 700.621094 L 267.46875 676.308594 L 243.144531 643.371094 L 238.414062 636.980469 L 223.632812 616.957031 L 163.902344 616.957031 L 149.105469 636.980469 L 144.382812 643.371094 L 120.054688 676.308594 L 87.128906 700.621094 L 80.738281 705.367188 L 60.722656 720.15625 L 60.722656 779.867188 L 80.746094 794.671875 L 87.136719 799.394531 L 120.0625 823.707031 L 144.390625 856.640625 L 149.136719 863.03125 L 163.910156 883.054688 L 223.640625 883.054688 L 238.433594 863.03125 L 243.160156 856.640625 L 267.484375 823.707031 L 300.414062 799.394531 L 306.8125 794.648438 L 326.835938 779.867188 L 326.835938 720.140625 L 306.8125 705.34375 Z M 304.175781 754.554688 C 303.105469 755.625 302.507812 756.222656 301.4375 757.292969 L 270.253906 757.292969 L 230.519531 786.359375 L 230.519531 786.769531 L 230.105469 786.769531 L 201.039062 826.515625 L 201.039062 857.679688 L 198.304688 860.417969 L 189.207031 860.417969 C 188.136719 859.347656 187.546875 858.75 186.484375 857.679688 L 186.484375 826.5 L 157.417969 786.761719 L 157.007812 786.761719 L 157.007812 786.351562 L 117.261719 757.285156 L 86.082031 757.285156 C 85.011719 756.214844 84.421875 755.617188 83.359375 754.546875 L 83.359375 745.457031 C 84.429688 744.390625 85.019531 743.792969 86.082031 742.722656 L 117.269531 742.722656 L 157.007812 713.65625 L 157.007812 713.246094 L 157.417969 713.246094 L 186.484375 673.5 L 186.484375 642.332031 C 187.554688 641.261719 188.144531 640.664062 189.207031 639.59375 L 198.304688 639.59375 C 199.375 640.664062 199.96875 641.261719 201.039062 642.332031 L 201.039062 673.515625 L 230.105469 713.253906 L 230.519531 713.253906 L 230.519531 713.664062 L 270.261719 742.730469 L 301.429688 742.730469 L 304.167969 745.464844 L 304.167969 754.554688 Z M 304.175781 754.554688 " fill-opacity="1" fill-rule="nonzero"/></g><g transform="matrix(1, 0, 0, 1, 389, 630)"><g clip-path="url(#d01b1ad367)"><g fill="#0164ff" fill-opacity="0.4"><g transform="translate(12.786307, 215.025322)"><g><path d="M 18.796875 0 L 18.796875 -197.375 L 58 -197.375 L 58 0 Z M 18.796875 0 "/></g></g></g><g fill="#0164ff" fill-opacity="0.4"><g transform="translate(76.157372, 215.025322)"><g><path d="M 159.5 -73.046875 C 159.5 -69.285156 159.234375 -65.4375 158.703125 -61.5 L 49.140625 -61.5 C 50.753906 -51.644531 54.691406 -44.078125 60.953125 -38.796875 C 67.222656 -33.515625 75.101562 -30.875 84.59375 -30.875 C 91.394531 -30.875 97.476562 -32.351562 102.84375 -35.3125 C 108.21875 -38.269531 112.335938 -42.34375 115.203125 -47.53125 L 156.546875 -47.53125 C 151.179688 -31.78125 142.050781 -19.25 129.15625 -9.9375 C 116.269531 -0.625 101.414062 4.03125 84.59375 4.03125 C 70.269531 4.03125 57.421875 0.675781 46.046875 -6.03125 C 34.679688 -12.75 25.734375 -21.878906 19.203125 -33.421875 C 12.671875 -44.972656 9.40625 -58 9.40625 -72.5 C 9.40625 -87 12.671875 -100.019531 19.203125 -111.5625 C 25.734375 -123.113281 34.679688 -132.242188 46.046875 -138.953125 C 57.421875 -145.671875 70.269531 -149.03125 84.59375 -149.03125 C 99.445312 -149.03125 112.507812 -145.582031 123.78125 -138.6875 C 135.0625 -131.800781 143.832031 -122.628906 150.09375 -111.171875 C 156.363281 -99.710938 159.5 -87.003906 159.5 -73.046875 Z M 84.59375 -115.734375 C 75.8125 -115.734375 68.421875 -113.316406 62.421875 -108.484375 C 56.429688 -103.648438 52.363281 -96.9375 50.21875 -88.34375 L 120.296875 -88.34375 C 114.566406 -106.601562 102.664062 -115.734375 84.59375 -115.734375 Z M 84.59375 -115.734375 "/></g></g></g><g fill="#0164ff" fill-opacity="0.4"><g transform="translate(231.364844, 215.025322)"><g><path d="M 135.875 -145 L 161.390625 -145 L 161.390625 -16.921875 C 161.390625 -1.703125 158.390625 11.363281 152.390625 22.28125 C 146.390625 33.207031 137.835938 41.625 126.734375 47.53125 C 115.640625 53.4375 102.484375 56.390625 87.265625 56.390625 C 67.578125 56.390625 51.15625 51.644531 38 42.15625 C 24.84375 32.664062 16.648438 19.6875 13.421875 3.21875 L 52.359375 3.21875 C 54.515625 9.664062 58.945312 14.546875 65.65625 17.859375 C 72.363281 21.171875 79.300781 22.828125 86.46875 22.828125 C 96.488281 22.828125 105.035156 19.828125 112.109375 13.828125 C 119.179688 7.828125 122.71875 -0.539062 122.71875 -11.28125 L 122.71875 -16.65625 C 116.988281 -12.53125 110.632812 -9.347656 103.65625 -7.109375 C 96.675781 -4.878906 89.242188 -3.765625 81.359375 -3.765625 C 67.929688 -3.765625 55.757812 -6.984375 44.84375 -13.421875 C 33.925781 -19.867188 25.289062 -28.550781 18.9375 -39.46875 C 12.582031 -50.394531 9.40625 -62.660156 9.40625 -76.265625 C 9.40625 -89.867188 12.582031 -102.175781 18.9375 -113.1875 C 25.289062 -124.195312 33.925781 -132.921875 44.84375 -139.359375 C 55.757812 -145.804688 67.929688 -149.03125 81.359375 -149.03125 C 90.847656 -149.03125 99.707031 -147.421875 107.9375 -144.203125 C 116.175781 -140.984375 123.429688 -136.414062 129.703125 -130.5 Z M 85.9375 -38.671875 C 96.675781 -38.671875 105.535156 -42.203125 112.515625 -49.265625 C 119.492188 -56.335938 122.984375 -65.335938 122.984375 -76.265625 C 122.984375 -87.003906 119.535156 -95.910156 112.640625 -102.984375 C 105.753906 -110.054688 96.851562 -113.59375 85.9375 -113.59375 C 75.375 -113.59375 66.597656 -110.054688 59.609375 -102.984375 C 52.628906 -95.910156 49.140625 -87.003906 49.140625 -76.265625 C 49.140625 -65.335938 52.582031 -56.335938 59.46875 -49.265625 C 66.363281 -42.203125 75.1875 -38.671875 85.9375 -38.671875 Z M 85.9375 -38.671875 "/></g></g></g><g fill="#0164ff" fill-opacity="0.4"><g transform="translate(398.119011, 215.025322)"><g><path d="M 18.796875 -164.34375 L 18.796875 -200.859375 L 58 -200.859375 L 58 -164.34375 Z M 18.796875 0 L 18.796875 -145 L 58 -145 L 58 0 Z M 18.796875 0 "/></g></g></g><g fill="#0164ff" fill-opacity="0.4"><g transform="translate(461.490075, 215.025322)"><g><path d="M 159.5 -73.046875 C 159.5 -69.285156 159.234375 -65.4375 158.703125 -61.5 L 49.140625 -61.5 C 50.753906 -51.644531 54.691406 -44.078125 60.953125 -38.796875 C 67.222656 -33.515625 75.101562 -30.875 84.59375 -30.875 C 91.394531 -30.875 97.476562 -32.351562 102.84375 -35.3125 C 108.21875 -38.269531 112.335938 -42.34375 115.203125 -47.53125 L 156.546875 -47.53125 C 151.179688 -31.78125 142.050781 -19.25 129.15625 -9.9375 C 116.269531 -0.625 101.414062 4.03125 84.59375 4.03125 C 70.269531 4.03125 57.421875 0.675781 46.046875 -6.03125 C 34.679688 -12.75 25.734375 -21.878906 19.203125 -33.421875 C 12.671875 -44.972656 9.40625 -58 9.40625 -72.5 C 9.40625 -87 12.671875 -100.019531 19.203125 -111.5625 C 25.734375 -123.113281 34.679688 -132.242188 46.046875 -138.953125 C 57.421875 -145.671875 70.269531 -149.03125 84.59375 -149.03125 C 99.445312 -149.03125 112.507812 -145.582031 123.78125 -138.6875 C 135.0625 -131.800781 143.832031 -122.628906 150.09375 -111.171875 C 156.363281 -99.710938 159.5 -87.003906 159.5 -73.046875 Z M 84.59375 -115.734375 C 75.8125 -115.734375 68.421875 -113.316406 62.421875 -108.484375 C 56.429688 -103.648438 52.363281 -96.9375 50.21875 -88.34375 L 120.296875 -88.34375 C 114.566406 -106.601562 102.664062 -115.734375 84.59375 -115.734375 Z M 84.59375 -115.734375 "/></g></g></g><g fill="#0164ff" fill-opacity="0.4"><g transform="translate(616.697547, 215.025322)"><g><path d="M 101.5 -148.5 C 117.96875 -148.5 130.988281 -142.992188 140.5625 -131.984375 C 150.144531 -120.972656 154.9375 -106.25 154.9375 -87.8125 L 154.9375 0 L 115.734375 0 L 115.734375 -81.640625 C 115.734375 -103.296875 107.320312 -114.125 90.5 -114.125 C 80.46875 -114.125 72.539062 -110.722656 66.71875 -103.921875 C 60.90625 -97.117188 58 -87.898438 58 -76.265625 L 58 0 L 18.796875 0 L 18.796875 -145 L 45.65625 -145 L 53.4375 -127.015625 C 58.8125 -133.640625 65.703125 -138.875 74.109375 -142.71875 C 82.523438 -146.570312 91.65625 -148.5 101.5 -148.5 Z M 101.5 -148.5 "/></g></g></g><g fill="#0164ff" fill-opacity="0.4"><g transform="translate(775.395919, 215.025322)"><g><path d="M 86.203125 4.03125 C 71.703125 4.03125 58.628906 0.628906 46.984375 -6.171875 C 35.347656 -12.972656 26.175781 -22.191406 19.46875 -33.828125 C 12.757812 -45.472656 9.40625 -58.546875 9.40625 -73.046875 C 9.40625 -87.546875 12.757812 -100.519531 19.46875 -111.96875 C 26.175781 -123.425781 35.347656 -132.46875 46.984375 -139.09375 C 58.628906 -145.71875 71.789062 -149.03125 86.46875 -149.03125 C 99 -149.03125 110.410156 -146.566406 120.703125 -141.640625 C 130.992188 -136.722656 139.585938 -129.785156 146.484375 -120.828125 C 153.378906 -111.878906 157.988281 -101.5 160.3125 -89.6875 L 121.375 -89.6875 C 118.15625 -96.851562 113.457031 -102.40625 107.28125 -106.34375 C 101.101562 -110.28125 94.078125 -112.25 86.203125 -112.25 C 79.210938 -112.25 72.898438 -110.5 67.265625 -107 C 61.628906 -103.507812 57.195312 -98.8125 53.96875 -92.90625 C 50.75 -87 49.140625 -80.285156 49.140625 -72.765625 C 49.140625 -65.253906 50.75 -58.5 53.96875 -52.5 C 57.195312 -46.5 61.628906 -41.707031 67.265625 -38.125 C 72.898438 -34.550781 79.210938 -32.765625 86.203125 -32.765625 C 94.253906 -32.765625 101.28125 -34.863281 107.28125 -39.0625 C 113.28125 -43.269531 117.976562 -49.316406 121.375 -57.203125 L 160.84375 -57.203125 C 158.519531 -45.023438 153.863281 -34.328125 146.875 -25.109375 C 139.894531 -15.890625 131.210938 -8.726562 120.828125 -3.625 C 110.453125 1.476562 98.910156 4.03125 86.203125 4.03125 Z M 86.203125 4.03125 "/></g></g></g><g fill="#0164ff" fill-opacity="0.4"><g transform="translate(929.797819, 215.025322)"><g><path d="M 159.5 -73.046875 C 159.5 -69.285156 159.234375 -65.4375 158.703125 -61.5 L 49.140625 -61.5 C 50.753906 -51.644531 54.691406 -44.078125 60.953125 -38.796875 C 67.222656 -33.515625 75.101562 -30.875 84.59375 -30.875 C 91.394531 -30.875 97.476562 -32.351562 102.84375 -35.3125 C 108.21875 -38.269531 112.335938 -42.34375 115.203125 -47.53125 L 156.546875 -47.53125 C 151.179688 -31.78125 142.050781 -19.25 129.15625 -9.9375 C 116.269531 -0.625 101.414062 4.03125 84.59375 4.03125 C 70.269531 4.03125 57.421875 0.675781 46.046875 -6.03125 C 34.679688 -12.75 25.734375 -21.878906 19.203125 -33.421875 C 12.671875 -44.972656 9.40625 -58 9.40625 -72.5 C 9.40625 -87 12.671875 -100.019531 19.203125 -111.5625 C 25.734375 -123.113281 34.679688 -132.242188 46.046875 -138.953125 C 57.421875 -145.671875 70.269531 -149.03125 84.59375 -149.03125 C 99.445312 -149.03125 112.507812 -145.582031 123.78125 -138.6875 C 135.0625 -131.800781 143.832031 -122.628906 150.09375 -111.171875 C 156.363281 -99.710938 159.5 -87.003906 159.5 -73.046875 Z M 84.59375 -115.734375 C 75.8125 -115.734375 68.421875 -113.316406 62.421875 -108.484375 C 56.429688 -103.648438 52.363281 -96.9375 50.21875 -88.34375 L 120.296875 -88.34375 C 114.566406 -106.601562 102.664062 -115.734375 84.59375 -115.734375 Z M 84.59375 -115.734375 "/></g></g></g><g fill="#0164ff" fill-opacity="1"><g transform="translate(0.917617, 203.156632)"><g><path d="M 18.796875 0 L 18.796875 -197.375 L 58 -197.375 L 58 0 Z M 18.796875 0 "/></g></g></g><g fill="#0164ff" fill-opacity="1"><g transform="translate(64.288682, 203.156632)"><g><path d="M 159.5 -73.046875 C 159.5 -69.285156 159.234375 -65.4375 158.703125 -61.5 L 49.140625 -61.5 C 50.753906 -51.644531 54.691406 -44.078125 60.953125 -38.796875 C 67.222656 -33.515625 75.101562 -30.875 84.59375 -30.875 C 91.394531 -30.875 97.476562 -32.351562 102.84375 -35.3125 C 108.21875 -38.269531 112.335938 -42.34375 115.203125 -47.53125 L 156.546875 -47.53125 C 151.179688 -31.78125 142.050781 -19.25 129.15625 -9.9375 C 116.269531 -0.625 101.414062 4.03125 84.59375 4.03125 C 70.269531 4.03125 57.421875 0.675781 46.046875 -6.03125 C 34.679688 -12.75 25.734375 -21.878906 19.203125 -33.421875 C 12.671875 -44.972656 9.40625 -58 9.40625 -72.5 C 9.40625 -87 12.671875 -100.019531 19.203125 -111.5625 C 25.734375 -123.113281 34.679688 -132.242188 46.046875 -138.953125 C 57.421875 -145.671875 70.269531 -149.03125 84.59375 -149.03125 C 99.445312 -149.03125 112.507812 -145.582031 123.78125 -138.6875 C 135.0625 -131.800781 143.832031 -122.628906 150.09375 -111.171875 C 156.363281 -99.710938 159.5 -87.003906 159.5 -73.046875 Z M 84.59375 -115.734375 C 75.8125 -115.734375 68.421875 -113.316406 62.421875 -108.484375 C 56.429688 -103.648438 52.363281 -96.9375 50.21875 -88.34375 L 120.296875 -88.34375 C 114.566406 -106.601562 102.664062 -115.734375 84.59375 -115.734375 Z M 84.59375 -115.734375 "/></g></g></g><g fill="#0164ff" fill-opacity="1"><g transform="translate(219.496154, 203.156632)"><g><path d="M 135.875 -145 L 161.390625 -145 L 161.390625 -16.921875 C 161.390625 -1.703125 158.390625 11.363281 152.390625 22.28125 C 146.390625 33.207031 137.835938 41.625 126.734375 47.53125 C 115.640625 53.4375 102.484375 56.390625 87.265625 56.390625 C 67.578125 56.390625 51.15625 51.644531 38 42.15625 C 24.84375 32.664062 16.648438 19.6875 13.421875 3.21875 L 52.359375 3.21875 C 54.515625 9.664062 58.945312 14.546875 65.65625 17.859375 C 72.363281 21.171875 79.300781 22.828125 86.46875 22.828125 C 96.488281 22.828125 105.035156 19.828125 112.109375 13.828125 C 119.179688 7.828125 122.71875 -0.539062 122.71875 -11.28125 L 122.71875 -16.65625 C 116.988281 -12.53125 110.632812 -9.347656 103.65625 -7.109375 C 96.675781 -4.878906 89.242188 -3.765625 81.359375 -3.765625 C 67.929688 -3.765625 55.757812 -6.984375 44.84375 -13.421875 C 33.925781 -19.867188 25.289062 -28.550781 18.9375 -39.46875 C 12.582031 -50.394531 9.40625 -62.660156 9.40625 -76.265625 C 9.40625 -89.867188 12.582031 -102.175781 18.9375 -113.1875 C 25.289062 -124.195312 33.925781 -132.921875 44.84375 -139.359375 C 55.757812 -145.804688 67.929688 -149.03125 81.359375 -149.03125 C 90.847656 -149.03125 99.707031 -147.421875 107.9375 -144.203125 C 116.175781 -140.984375 123.429688 -136.414062 129.703125 -130.5 Z M 85.9375 -38.671875 C 96.675781 -38.671875 105.535156 -42.203125 112.515625 -49.265625 C 119.492188 -56.335938 122.984375 -65.335938 122.984375 -76.265625 C 122.984375 -87.003906 119.535156 -95.910156 112.640625 -102.984375 C 105.753906 -110.054688 96.851562 -113.59375 85.9375 -113.59375 C 75.375 -113.59375 66.597656 -110.054688 59.609375 -102.984375 C 52.628906 -95.910156 49.140625 -87.003906 49.140625 -76.265625 C 49.140625 -65.335938 52.582031 -56.335938 59.46875 -49.265625 C 66.363281 -42.203125 75.1875 -38.671875 85.9375 -38.671875 Z M 85.9375 -38.671875 "/></g></g></g><g fill="#0164ff" fill-opacity="1"><g transform="translate(386.25032, 203.156632)"><g><path d="M 18.796875 -164.34375 L 18.796875 -200.859375 L 58 -200.859375 L 58 -164.34375 Z M 18.796875 0 L 18.796875 -145 L 58 -145 L 58 0 Z M 18.796875 0 "/></g></g></g><g fill="#0164ff" fill-opacity="1"><g transform="translate(449.621385, 203.156632)"><g><path d="M 159.5 -73.046875 C 159.5 -69.285156 159.234375 -65.4375 158.703125 -61.5 L 49.140625 -61.5 C 50.753906 -51.644531 54.691406 -44.078125 60.953125 -38.796875 C 67.222656 -33.515625 75.101562 -30.875 84.59375 -30.875 C 91.394531 -30.875 97.476562 -32.351562 102.84375 -35.3125 C 108.21875 -38.269531 112.335938 -42.34375 115.203125 -47.53125 L 156.546875 -47.53125 C 151.179688 -31.78125 142.050781 -19.25 129.15625 -9.9375 C 116.269531 -0.625 101.414062 4.03125 84.59375 4.03125 C 70.269531 4.03125 57.421875 0.675781 46.046875 -6.03125 C 34.679688 -12.75 25.734375 -21.878906 19.203125 -33.421875 C 12.671875 -44.972656 9.40625 -58 9.40625 -72.5 C 9.40625 -87 12.671875 -100.019531 19.203125 -111.5625 C 25.734375 -123.113281 34.679688 -132.242188 46.046875 -138.953125 C 57.421875 -145.671875 70.269531 -149.03125 84.59375 -149.03125 C 99.445312 -149.03125 112.507812 -145.582031 123.78125 -138.6875 C 135.0625 -131.800781 143.832031 -122.628906 150.09375 -111.171875 C 156.363281 -99.710938 159.5 -87.003906 159.5 -73.046875 Z M 84.59375 -115.734375 C 75.8125 -115.734375 68.421875 -113.316406 62.421875 -108.484375 C 56.429688 -103.648438 52.363281 -96.9375 50.21875 -88.34375 L 120.296875 -88.34375 C 114.566406 -106.601562 102.664062 -115.734375 84.59375 -115.734375 Z M 84.59375 -115.734375 "/></g></g></g><g fill="#0164ff" fill-opacity="1"><g transform="translate(604.828857, 203.156632)"><g><path d="M 101.5 -148.5 C 117.96875 -148.5 130.988281 -142.992188 140.5625 -131.984375 C 150.144531 -120.972656 154.9375 -106.25 154.9375 -87.8125 L 154.9375 0 L 115.734375 0 L 115.734375 -81.640625 C 115.734375 -103.296875 107.320312 -114.125 90.5 -114.125 C 80.46875 -114.125 72.539062 -110.722656 66.71875 -103.921875 C 60.90625 -97.117188 58 -87.898438 58 -76.265625 L 58 0 L 18.796875 0 L 18.796875 -145 L 45.65625 -145 L 53.4375 -127.015625 C 58.8125 -133.640625 65.703125 -138.875 74.109375 -142.71875 C 82.523438 -146.570312 91.65625 -148.5 101.5 -148.5 Z M 101.5 -148.5 "/></g></g></g><g fill="#0164ff" fill-opacity="1"><g transform="translate(763.527229, 203.156632)"><g><path d="M 86.203125 4.03125 C 71.703125 4.03125 58.628906 0.628906 46.984375 -6.171875 C 35.347656 -12.972656 26.175781 -22.191406 19.46875 -33.828125 C 12.757812 -45.472656 9.40625 -58.546875 9.40625 -73.046875 C 9.40625 -87.546875 12.757812 -100.519531 19.46875 -111.96875 C 26.175781 -123.425781 35.347656 -132.46875 46.984375 -139.09375 C 58.628906 -145.71875 71.789062 -149.03125 86.46875 -149.03125 C 99 -149.03125 110.410156 -146.566406 120.703125 -141.640625 C 130.992188 -136.722656 139.585938 -129.785156 146.484375 -120.828125 C 153.378906 -111.878906 157.988281 -101.5 160.3125 -89.6875 L 121.375 -89.6875 C 118.15625 -96.851562 113.457031 -102.40625 107.28125 -106.34375 C 101.101562 -110.28125 94.078125 -112.25 86.203125 -112.25 C 79.210938 -112.25 72.898438 -110.5 67.265625 -107 C 61.628906 -103.507812 57.195312 -98.8125 53.96875 -92.90625 C 50.75 -87 49.140625 -80.285156 49.140625 -72.765625 C 49.140625 -65.253906 50.75 -58.5 53.96875 -52.5 C 57.195312 -46.5 61.628906 -41.707031 67.265625 -38.125 C 72.898438 -34.550781 79.210938 -32.765625 86.203125 -32.765625 C 94.253906 -32.765625 101.28125 -34.863281 107.28125 -39.0625 C 113.28125 -43.269531 117.976562 -49.316406 121.375 -57.203125 L 160.84375 -57.203125 C 158.519531 -45.023438 153.863281 -34.328125 146.875 -25.109375 C 139.894531 -15.890625 131.210938 -8.726562 120.828125 -3.625 C 110.453125 1.476562 98.910156 4.03125 86.203125 4.03125 Z M 86.203125 4.03125 "/></g></g></g><g fill="#0164ff" fill-opacity="1"><g transform="translate(917.929128, 203.156632)"><g><path d="M 159.5 -73.046875 C 159.5 -69.285156 159.234375 -65.4375 158.703125 -61.5 L 49.140625 -61.5 C 50.753906 -51.644531 54.691406 -44.078125 60.953125 -38.796875 C 67.222656 -33.515625 75.101562 -30.875 84.59375 -30.875 C 91.394531 -30.875 97.476562 -32.351562 102.84375 -35.3125 C 108.21875 -38.269531 112.335938 -42.34375 115.203125 -47.53125 L 156.546875 -47.53125 C 151.179688 -31.78125 142.050781 -19.25 129.15625 -9.9375 C 116.269531 -0.625 101.414062 4.03125 84.59375 4.03125 C 70.269531 4.03125 57.421875 0.675781 46.046875 -6.03125 C 34.679688 -12.75 25.734375 -21.878906 19.203125 -33.421875 C 12.671875 -44.972656 9.40625 -58 9.40625 -72.5 C 9.40625 -87 12.671875 -100.019531 19.203125 -111.5625 C 25.734375 -123.113281 34.679688 -132.242188 46.046875 -138.953125 C 57.421875 -145.671875 70.269531 -149.03125 84.59375 -149.03125 C 99.445312 -149.03125 112.507812 -145.582031 123.78125 -138.6875 C 135.0625 -131.800781 143.832031 -122.628906 150.09375 -111.171875 C 156.363281 -99.710938 159.5 -87.003906 159.5 -73.046875 Z M 84.59375 -115.734375 C 75.8125 -115.734375 68.421875 -113.316406 62.421875 -108.484375 C 56.429688 -103.648438 52.363281 -96.9375 50.21875 -88.34375 L 120.296875 -88.34375 C 114.566406 -106.601562 102.664062 -115.734375 84.59375 -115.734375 Z M 84.59375 -115.734375 "/></g></g></g></g></g></svg>