<svg xmlns="http://www.w3.org/2000/svg" version="1.1" xmlns:xlink="http://www.w3.org/1999/xlink" width="1000" height="1000"><g clip-path="url(#SvgjsClipPath1058)"><rect width="1000" height="1000" fill="#ffffff"></rect><g transform="matrix(0.5,0,0,0.5,0,0)"><svg xmlns="http://www.w3.org/2000/svg" version="1" xmlns:xlink="http://www.w3.org/1999/xlink" width="2000" zoomAndPan="magnify" viewBox="0 0 1500 1499.999933" height="2000" preserveAspectRatio="xMidYMid meet"><defs><clipPath id="795b07ce10"><path d="M 20 489 L 407 489 L 407 1106 L 20 1106 Z M 20 489 " clip-rule="nonzero"></path></clipPath><clipPath id="a896b53bc8"><path d="M 373.539062 489.191406 L 20.492188 1105.078125 L 53.894531 1105.078125 L 406.945312 489.191406 Z M 373.539062 489.191406 " clip-rule="nonzero"></path></clipPath><clipPath id="7340e0a508"><path d="M 0.398438 0.121094 L 387 0.121094 L 387 616.199219 L 0.398438 616.199219 Z M 0.398438 0.121094 " clip-rule="nonzero"></path></clipPath><clipPath id="1be3501b90"><path d="M 353.539062 0.191406 L 0.492188 616.078125 L 33.894531 616.078125 L 386.945312 0.191406 Z M 353.539062 0.191406 " clip-rule="nonzero"></path></clipPath><clipPath id="d0bcbcd58c"><rect x="0" width="387" y="0" height="617"></rect></clipPath><clipPath id="fde5d9e109"><path d="M 114 489 L 501 489 L 501 1106 L 114 1106 Z M 114 489 " clip-rule="nonzero"></path></clipPath><clipPath id="e36600f7ec"><path d="M 467.109375 489.191406 L 114.0625 1105.078125 L 147.464844 1105.078125 L 500.511719 489.191406 Z M 467.109375 489.191406 " clip-rule="nonzero"></path></clipPath><clipPath id="cf47740afd"><path d="M 0 0.121094 L 386.640625 0.121094 L 386.640625 616.199219 L 0 616.199219 Z M 0 0.121094 " clip-rule="nonzero"></path></clipPath><clipPath id="82060cd7ec"><path d="M 353.109375 0.191406 L 0.0625 616.078125 L 33.464844 616.078125 L 386.511719 0.191406 Z M 353.109375 0.191406 " clip-rule="nonzero"></path></clipPath><clipPath id="1ab5bb0345"><rect x="0" width="387" y="0" height="617"></rect></clipPath><clipPath id="1c045c6be2"><path d="M 207 489 L 750 489 L 750 1106 L 207 1106 Z M 207 489 " clip-rule="nonzero"></path></clipPath><clipPath id="0b88d3f7ed"><path d="M 749.992188 819.449219 L 586.253906 1105.078125 L 207.589844 1105.078125 L 560.679688 489.191406 Z M 749.992188 819.449219 " clip-rule="nonzero"></path></clipPath><clipPath id="e4c9ff495f"><path d="M 0.359375 0.121094 L 543 0.121094 L 543 616.199219 L 0.359375 616.199219 Z M 0.359375 0.121094 " clip-rule="nonzero"></path></clipPath><clipPath id="627eb22ca9"><path d="M 542.992188 330.449219 L 379.253906 616.078125 L 0.589844 616.078125 L 353.679688 0.191406 Z M 542.992188 330.449219 " clip-rule="nonzero"></path></clipPath><clipPath id="c9b658b974"><rect x="0" width="543" y="0" height="617"></rect></clipPath><clipPath id="5a4f064ffc"><path d="M 1093 489 L 1480 489 L 1480 1106 L 1093 1106 Z M 1093 489 " clip-rule="nonzero"></path></clipPath><clipPath id="91aa53f7a2"><path d="M 1126.441406 489.191406 L 1479.488281 1105.078125 L 1446.085938 1105.078125 L 1093.039062 489.191406 Z M 1126.441406 489.191406 " clip-rule="nonzero"></path></clipPath><clipPath id="354f6a5bad"><path d="M 0 0.121094 L 386.601562 0.121094 L 386.601562 616.199219 L 0 616.199219 Z M 0 0.121094 " clip-rule="nonzero"></path></clipPath><clipPath id="ea6e8afc13"><path d="M 33.441406 0.191406 L 386.488281 616.078125 L 353.085938 616.078125 L 0.0390625 0.191406 Z M 33.441406 0.191406 " clip-rule="nonzero"></path></clipPath><clipPath id="01382350f8"><rect x="0" width="387" y="0" height="617"></rect></clipPath><clipPath id="2ab83e46ad"><path d="M 999 489 L 1386 489 L 1386 1106 L 999 1106 Z M 999 489 " clip-rule="nonzero"></path></clipPath><clipPath id="69fa0cc20b"><path d="M 1032.914062 489.191406 L 1385.960938 1105.078125 L 1352.558594 1105.078125 L 999.46875 489.191406 Z M 1032.914062 489.191406 " clip-rule="nonzero"></path></clipPath><clipPath id="170f255da3"><path d="M 0.359375 0.121094 L 387 0.121094 L 387 616.199219 L 0.359375 616.199219 Z M 0.359375 0.121094 " clip-rule="nonzero"></path></clipPath><clipPath id="133793aa14"><path d="M 33.914062 0.191406 L 386.960938 616.078125 L 353.558594 616.078125 L 0.46875 0.191406 Z M 33.914062 0.191406 " clip-rule="nonzero"></path></clipPath><clipPath id="f13bfb0e5b"><rect x="0" width="387" y="0" height="617"></rect></clipPath><clipPath id="b10bccd1cf"><path d="M 586 819 L 914 819 L 914 1106 L 586 1106 Z M 586 819 " clip-rule="nonzero"></path></clipPath><clipPath id="df039a38f9"><path d="M 913.726562 1105.078125 L 586.296875 1105.078125 L 750.03125 819.449219 Z M 913.726562 1105.078125 " clip-rule="nonzero"></path></clipPath><clipPath id="d178188cb2"><path d="M 0.078125 0.359375 L 327.921875 0.359375 L 327.921875 286.199219 L 0.078125 286.199219 Z M 0.078125 0.359375 " clip-rule="nonzero"></path></clipPath><clipPath id="f24f3a6573"><path d="M 327.726562 286.078125 L 0.296875 286.078125 L 164.03125 0.449219 Z M 327.726562 286.078125 " clip-rule="nonzero"></path></clipPath><clipPath id="53e245ce21"><rect x="0" width="328" y="0" height="287"></rect></clipPath><clipPath id="35932c3fba"><path d="M 750 489 L 1293 489 L 1293 1106 L 750 1106 Z M 750 489 " clip-rule="nonzero"></path></clipPath><clipPath id="793b622d10"><path d="M 1292.390625 1105.078125 L 913.726562 1105.078125 L 750.03125 819.449219 L 939.34375 489.191406 Z M 1292.390625 1105.078125 " clip-rule="nonzero"></path></clipPath><clipPath id="f8564d51e2"><path d="M 0 0.121094 L 542.398438 0.121094 L 542.398438 616.199219 L 0 616.199219 Z M 0 0.121094 " clip-rule="nonzero"></path></clipPath><clipPath id="2bd83520c2"><path d="M 542.390625 616.078125 L 163.726562 616.078125 L 0.03125 330.449219 L 189.34375 0.191406 Z M 542.390625 616.078125 " clip-rule="nonzero"></path></clipPath><clipPath id="ebf14a608f"><rect x="0" width="543" y="0" height="617"></rect></clipPath><clipPath id="69a00014f1"><path d="M 376.902344 394.921875 L 1123.121094 394.921875 L 1123.121094 428.324219 L 376.902344 428.324219 Z M 376.902344 394.921875 " clip-rule="nonzero"></path></clipPath><clipPath id="bc3769f5b9"><path d="M 0.902344 0.921875 L 747.121094 0.921875 L 747.121094 34.324219 L 0.902344 34.324219 Z M 0.902344 0.921875 " clip-rule="nonzero"></path></clipPath><clipPath id="a2c04e9622"><rect x="0" width="748" y="0" height="35"></rect></clipPath><clipPath id="ba660ae55c"><path d="M 583 411 L 917 411 L 917 703 L 583 703 Z M 583 411 " clip-rule="nonzero"></path></clipPath><clipPath id="935d8088b2"><path d="M 916.882812 411.644531 L 749.992188 702.722656 L 583.097656 411.644531 Z M 916.882812 411.644531 " clip-rule="nonzero"></path></clipPath><clipPath id="7ddd400297"><path d="M 0 0.601562 L 334 0.601562 L 334 291.960938 L 0 291.960938 Z M 0 0.601562 " clip-rule="nonzero"></path></clipPath><clipPath id="3e5db65895"><path d="M 333.882812 0.644531 L 166.992188 291.722656 L 0.0976562 0.644531 Z M 333.882812 0.644531 " clip-rule="nonzero"></path></clipPath><clipPath id="ad99dade4d"><rect x="0" width="334" y="0" height="292"></rect></clipPath><clipPath id="SvgjsClipPath1058"><rect width="1000" height="1000" x="0" y="0" rx="500" ry="500"></rect></clipPath></defs><g clip-path="url(#795b07ce10)"><g clip-path="url(#a896b53bc8)"><g transform="matrix(1, 0, 0, 1, 20, 489)"><g clip-path="url(#d0bcbcd58c)"><g clip-path="url(#7340e0a508)"><g clip-path="url(#1be3501b90)"><rect x="-350" width="2160" fill="#38b6ff" height="2159.999904" y="-818.999985" fill-opacity="1"></rect></g></g></g></g></g></g><g clip-path="url(#fde5d9e109)"><g clip-path="url(#e36600f7ec)"><g transform="matrix(1, 0, 0, 1, 114, 489)"><g clip-path="url(#1ab5bb0345)"><g clip-path="url(#cf47740afd)"><g clip-path="url(#82060cd7ec)"><rect x="-444" width="2160" fill="#38b6ff" height="2159.999904" y="-818.999985" fill-opacity="1"></rect></g></g></g></g></g></g><g clip-path="url(#1c045c6be2)"><g clip-path="url(#0b88d3f7ed)"><g transform="matrix(1, 0, 0, 1, 207, 489)"><g clip-path="url(#c9b658b974)"><g clip-path="url(#e4c9ff495f)"><g clip-path="url(#627eb22ca9)"><rect x="-537" width="2160" fill="#38b6ff" height="2159.999904" y="-818.999985" fill-opacity="1"></rect></g></g></g></g></g></g><g clip-path="url(#5a4f064ffc)"><g clip-path="url(#91aa53f7a2)"><g transform="matrix(1, 0, 0, 1, 1093, 489)"><g clip-path="url(#01382350f8)"><g clip-path="url(#354f6a5bad)"><g clip-path="url(#ea6e8afc13)"><rect x="-1423" width="2160" fill="#1e56b6" height="2159.999904" y="-818.999985" fill-opacity="1"></rect></g></g></g></g></g></g><g clip-path="url(#2ab83e46ad)"><g clip-path="url(#69fa0cc20b)"><g transform="matrix(1, 0, 0, 1, 999, 489)"><g clip-path="url(#f13bfb0e5b)"><g clip-path="url(#170f255da3)"><g clip-path="url(#133793aa14)"><rect x="-1329" width="2160" fill="#1e56b6" height="2159.999904" y="-818.999985" fill-opacity="1"></rect></g></g></g></g></g></g><g clip-path="url(#b10bccd1cf)"><g clip-path="url(#df039a38f9)"><g transform="matrix(1, 0, 0, 1, 586, 819)"><g clip-path="url(#53e245ce21)"><g clip-path="url(#d178188cb2)"><g clip-path="url(#f24f3a6573)"><rect x="-916" width="2160" fill="#004aad" height="2159.999904" y="-1148.999985" fill-opacity="1"></rect></g></g></g></g></g></g><g clip-path="url(#35932c3fba)"><g clip-path="url(#793b622d10)"><g transform="matrix(1, 0, 0, 1, 750, 489)"><g clip-path="url(#ebf14a608f)"><g clip-path="url(#f8564d51e2)"><g clip-path="url(#2bd83520c2)"><rect x="-1080" width="2160" fill="#1e56b6" height="2159.999904" y="-818.999985" fill-opacity="1"></rect></g></g></g></g></g></g><g clip-path="url(#69a00014f1)"><g transform="matrix(1, 0, 0, 1, 376, 394)"><g clip-path="url(#a2c04e9622)"><g clip-path="url(#bc3769f5b9)"><rect x="-706" width="2160" fill="#004aad" height="2159.999904" y="-723.999985" fill-opacity="1"></rect></g></g></g></g><g clip-path="url(#ba660ae55c)"><g clip-path="url(#935d8088b2)"><g transform="matrix(1, 0, 0, 1, 583, 411)"><g clip-path="url(#ad99dade4d)"><g clip-path="url(#7ddd400297)"><g clip-path="url(#3e5db65895)"><rect x="-913" width="2160" fill="#004aad" height="2159.999904" y="-740.999985" fill-opacity="1"></rect></g></g></g></g></g></g></svg></g></g></svg>