<svg xmlns="http://www.w3.org/2000/svg" xmlns:xlink="http://www.w3.org/1999/xlink" width="2000" zoomAndPan="magnify" viewBox="0 0 1500 1499.999933" height="2000" preserveAspectRatio="xMidYMid meet" version="1.0"><defs><clipPath id="46dd153ec6"><path d="M 374.246094 401.898438 L 573.347656 401.898438 L 573.347656 719.175781 L 374.246094 719.175781 Z M 374.246094 401.898438 " clip-rule="nonzero"/></clipPath><clipPath id="2b40edccee"><path d="M 556.113281 401.933594 L 374.292969 719.113281 L 391.496094 719.113281 L 573.316406 401.933594 Z M 556.113281 401.933594 " clip-rule="nonzero"/></clipPath><clipPath id="39856be09c"><path d="M 556.113281 401.933594 L 374.292969 719.113281 L 391.496094 719.113281 L 573.316406 401.933594 Z M 556.113281 401.933594 " clip-rule="nonzero"/></clipPath><clipPath id="6460f3efd0"><path d="M 422.449219 401.898438 L 621.570312 401.898438 L 621.570312 719.175781 L 422.449219 719.175781 Z M 422.449219 401.898438 " clip-rule="nonzero"/></clipPath><clipPath id="2db0b42caa"><path d="M 604.300781 401.933594 L 422.484375 719.113281 L 439.683594 719.113281 L 621.503906 401.933594 Z M 604.300781 401.933594 " clip-rule="nonzero"/></clipPath><clipPath id="9c85d16ec9"><path d="M 604.300781 401.933594 L 422.484375 719.113281 L 439.683594 719.113281 L 621.503906 401.933594 Z M 604.300781 401.933594 " clip-rule="nonzero"/></clipPath><clipPath id="47722c20d4"><path d="M 470.53125 401.898438 L 749.992188 401.898438 L 749.992188 719.175781 L 470.53125 719.175781 Z M 470.53125 401.898438 " clip-rule="nonzero"/></clipPath><clipPath id="ac402b7f33"><path d="M 749.988281 572.015625 L 665.660156 719.113281 L 470.648438 719.113281 L 652.492188 401.933594 Z M 749.988281 572.015625 " clip-rule="nonzero"/></clipPath><clipPath id="e09e6ec445"><path d="M 749.988281 572.015625 L 665.660156 719.113281 L 470.648438 719.113281 L 652.492188 401.933594 Z M 749.988281 572.015625 " clip-rule="nonzero"/></clipPath><clipPath id="7335d8b787"><path d="M 926.636719 401.898438 L 1125.734375 401.898438 L 1125.734375 719.175781 L 926.636719 719.175781 Z M 926.636719 401.898438 " clip-rule="nonzero"/></clipPath><clipPath id="30e444f636"><path d="M 943.859375 401.933594 L 1125.675781 719.113281 L 1108.476562 719.113281 L 926.65625 401.933594 Z M 943.859375 401.933594 " clip-rule="nonzero"/></clipPath><clipPath id="abce2963ab"><path d="M 943.859375 401.933594 L 1125.675781 719.113281 L 1108.476562 719.113281 L 926.65625 401.933594 Z M 943.859375 401.933594 " clip-rule="nonzero"/></clipPath><clipPath id="568641428d"><path d="M 878.410156 401.898438 L 1077.53125 401.898438 L 1077.53125 719.175781 L 878.410156 719.175781 Z M 878.410156 401.898438 " clip-rule="nonzero"/></clipPath><clipPath id="7a37f5f10a"><path d="M 895.691406 401.933594 L 1077.511719 719.113281 L 1060.308594 719.113281 L 878.46875 401.933594 Z M 895.691406 401.933594 " clip-rule="nonzero"/></clipPath><clipPath id="4b3764fe38"><path d="M 895.691406 401.933594 L 1077.511719 719.113281 L 1060.308594 719.113281 L 878.46875 401.933594 Z M 895.691406 401.933594 " clip-rule="nonzero"/></clipPath><clipPath id="bdbb2c82d6"><path d="M 665.570312 572 L 834.410156 572 L 834.410156 719.175781 L 665.570312 719.175781 Z M 665.570312 572 " clip-rule="nonzero"/></clipPath><clipPath id="426814c616"><path d="M 834.308594 719.113281 L 665.683594 719.113281 L 750.007812 572.015625 Z M 834.308594 719.113281 " clip-rule="nonzero"/></clipPath><clipPath id="9f91401d64"><path d="M 834.308594 719.113281 L 665.683594 719.113281 L 750.007812 572.015625 Z M 834.308594 719.113281 " clip-rule="nonzero"/></clipPath><clipPath id="c929460bfc"><path d="M 750 401.898438 L 1029.324219 401.898438 L 1029.324219 719.175781 L 750 719.175781 Z M 750 401.898438 " clip-rule="nonzero"/></clipPath><clipPath id="28e7da17a0"><path d="M 1029.320312 719.113281 L 834.308594 719.113281 L 750.007812 572.015625 L 847.503906 401.933594 Z M 1029.320312 719.113281 " clip-rule="nonzero"/></clipPath><clipPath id="134ea698e4"><path d="M 1029.320312 719.113281 L 834.308594 719.113281 L 750.007812 572.015625 L 847.503906 401.933594 Z M 1029.320312 719.113281 " clip-rule="nonzero"/></clipPath><clipPath id="c886b012ef"><path d="M 557.84375 353.382812 L 942.148438 353.382812 L 942.148438 370.585938 L 557.84375 370.585938 Z M 557.84375 353.382812 " clip-rule="nonzero"/></clipPath><clipPath id="9f91c7791f"><path d="M 664 361.976562 L 835.996094 361.976562 L 835.996094 512 L 664 512 Z M 664 361.976562 " clip-rule="nonzero"/></clipPath><clipPath id="69384a3787"><path d="M 835.933594 361.996094 L 749.988281 511.902344 L 664.035156 361.996094 Z M 835.933594 361.996094 " clip-rule="nonzero"/></clipPath><clipPath id="8a08b7ea5d"><path d="M 835.933594 361.996094 L 749.988281 511.902344 L 664.035156 361.996094 Z M 835.933594 361.996094 " clip-rule="nonzero"/></clipPath><clipPath id="db9d5699fe"><path d="M 55.214844 853.667969 L 102.308594 853.667969 L 102.308594 1116.316406 L 55.214844 1116.316406 Z M 55.214844 853.667969 " clip-rule="nonzero"/></clipPath><clipPath id="5c298cf268"><path d="M 102.234375 853.667969 L 102.300781 1116.234375 L 55.214844 1116.234375 L 55.214844 853.667969 Z M 102.234375 853.667969 " clip-rule="nonzero"/></clipPath><clipPath id="c1ecae90be"><path d="M 102.234375 853.667969 L 102.300781 1116.234375 L 55.214844 1116.234375 L 55.214844 853.667969 Z M 102.234375 853.667969 " clip-rule="nonzero"/></clipPath><clipPath id="8f8898b88c"><path d="M 130.328125 924.207031 L 325 924.207031 L 325 1120.417969 L 130.328125 1120.417969 Z M 130.328125 924.207031 " clip-rule="nonzero"/></clipPath><clipPath id="ac1f19a424"><path d="M 279.074219 1002.59375 C 275.40625 991.613281 269.144531 983 260.265625 976.71875 C 251.378906 970.449219 240.53125 967.324219 227.746094 967.324219 C 214.683594 967.324219 203.707031 970.464844 194.820312 976.71875 C 185.945312 982.984375 179.804688 991.613281 176.398438 1002.59375 Z M 130.554688 1022.179688 C 130.554688 1008.074219 132.960938 995.019531 137.804688 983 C 142.640625 970.972656 149.363281 960.601562 157.980469 951.847656 C 166.59375 943.089844 176.847656 936.296875 188.742188 931.453125 C 200.632812 926.617188 213.636719 924.207031 227.726562 924.207031 C 241.824219 924.207031 254.835938 926.617188 266.738281 931.453125 C 278.632812 936.296875 288.878906 943.089844 297.5 951.832031 C 306.117188 960.570312 312.847656 970.972656 317.675781 982.984375 C 322.496094 994.984375 324.925781 1008.074219 324.925781 1022.160156 C 324.925781 1023.992188 324.859375 1025.761719 324.734375 1027.449219 C 324.609375 1029.136719 324.273438 1031.316406 323.757812 1033.921875 L 174.433594 1033.921875 C 176.789062 1047.25 182.585938 1057.765625 191.882812 1065.457031 C 201.167969 1073.15625 213.101562 1077.039062 227.726562 1077.039062 C 237.65625 1077.039062 246.46875 1075.210938 254.1875 1071.5625 C 261.894531 1067.902344 268.101562 1062.550781 272.800781 1055.492188 L 319.824219 1055.492188 C 316.683594 1065.421875 312.230469 1074.375 306.5 1082.335938 C 300.78125 1090.304688 293.898438 1097.109375 285.9375 1102.714844 C 277.980469 1108.316406 269.09375 1112.644531 259.289062 1115.632812 C 249.484375 1118.632812 238.96875 1120.144531 227.746094 1120.144531 C 213.636719 1120.144531 200.632812 1117.730469 188.757812 1112.886719 C 176.882812 1108.050781 166.59375 1101.328125 157.980469 1092.707031 C 149.363281 1084.097656 142.621094 1073.773438 137.804688 1061.757812 C 132.976562 1049.730469 130.554688 1036.542969 130.554688 1022.179688 " clip-rule="nonzero"/></clipPath><clipPath id="5fa70d0682"><path d="M 279.074219 1002.59375 C 275.40625 991.613281 269.144531 983 260.265625 976.71875 C 251.378906 970.449219 240.53125 967.324219 227.746094 967.324219 C 214.683594 967.324219 203.707031 970.464844 194.820312 976.71875 C 185.945312 982.984375 179.804688 991.613281 176.398438 1002.59375 Z M 130.554688 1022.179688 C 130.554688 1008.074219 132.960938 995.019531 137.804688 983 C 142.640625 970.972656 149.363281 960.601562 157.980469 951.847656 C 166.59375 943.089844 176.847656 936.296875 188.742188 931.453125 C 200.632812 926.617188 213.636719 924.207031 227.726562 924.207031 C 241.824219 924.207031 254.835938 926.617188 266.738281 931.453125 C 278.632812 936.296875 288.878906 943.089844 297.5 951.832031 C 306.117188 960.570312 312.847656 970.972656 317.675781 982.984375 C 322.496094 994.984375 324.925781 1008.074219 324.925781 1022.160156 C 324.925781 1023.992188 324.859375 1025.761719 324.734375 1027.449219 C 324.609375 1029.136719 324.273438 1031.316406 323.757812 1033.921875 L 174.433594 1033.921875 C 176.789062 1047.25 182.585938 1057.765625 191.882812 1065.457031 C 201.167969 1073.15625 213.101562 1077.039062 227.726562 1077.039062 C 237.65625 1077.039062 246.46875 1075.210938 254.1875 1071.5625 C 261.894531 1067.902344 268.101562 1062.550781 272.800781 1055.492188 L 319.824219 1055.492188 C 316.683594 1065.421875 312.230469 1074.375 306.5 1082.335938 C 300.78125 1090.304688 293.898438 1097.109375 285.9375 1102.714844 C 277.980469 1108.316406 269.09375 1112.644531 259.289062 1115.632812 C 249.484375 1118.632812 238.96875 1120.144531 227.746094 1120.144531 C 213.636719 1120.144531 200.632812 1117.730469 188.757812 1112.886719 C 176.882812 1108.050781 166.59375 1101.328125 157.980469 1092.707031 C 149.363281 1084.097656 142.621094 1073.773438 137.804688 1061.757812 C 132.976562 1049.730469 130.554688 1036.542969 130.554688 1022.179688 " clip-rule="nonzero"/></clipPath><clipPath id="010cf5c803"><path d="M 348.4375 928.089844 L 540.453125 928.089844 L 540.453125 1198.890625 L 348.4375 1198.890625 Z M 348.4375 928.089844 " clip-rule="nonzero"/></clipPath><clipPath id="c076ca7da5"><path d="M 497.347656 1024.132812 L 497.347656 998.652344 L 540.453125 998.652344 L 540.453125 1102.511719 C 540.453125 1115.832031 537.972656 1128.386719 533 1140.136719 C 528.039062 1151.894531 521.25 1162.085938 512.632812 1170.703125 C 504.011719 1179.324219 493.890625 1186.113281 482.265625 1191.074219 C 470.628906 1196.042969 458.027344 1198.523438 444.441406 1198.523438 C 432.9375 1198.523438 422.03125 1196.695312 411.707031 1193.042969 C 401.394531 1189.394531 392.125 1184.21875 383.898438 1177.550781 C 375.671875 1170.878906 368.679688 1162.980469 362.933594 1153.84375 C 357.1875 1144.714844 353.128906 1134.765625 350.792969 1124.058594 L 396.234375 1124.058594 C 400.417969 1133.457031 406.746094 1141.039062 415.242188 1146.785156 C 423.734375 1152.53125 433.464844 1155.402344 444.441406 1155.402344 C 451.746094 1155.402344 458.613281 1154.09375 465.011719 1151.488281 C 471.40625 1148.882812 476.960938 1145.347656 481.65625 1140.898438 C 486.355469 1136.453125 490.082031 1131.101562 492.828125 1124.835938 C 495.578125 1118.582031 497.0625 1111.917969 497.332031 1104.859375 C 481.90625 1115.046875 464.285156 1120.144531 444.421875 1120.144531 C 431.09375 1120.144531 418.558594 1117.65625 406.796875 1112.695312 C 395.046875 1107.734375 384.882812 1100.933594 376.253906 1092.324219 C 367.621094 1083.703125 360.847656 1073.507812 355.878906 1061.757812 C 350.917969 1049.996094 348.4375 1037.460938 348.4375 1024.132812 C 348.4375 1010.554688 350.917969 997.941406 355.878906 986.316406 C 360.847656 974.683594 367.636719 964.558594 376.253906 955.941406 C 384.867188 947.324219 395.0625 940.53125 406.824219 935.570312 C 418.574219 930.609375 431.125 928.121094 444.441406 928.121094 L 540.453125 928.121094 L 540.453125 971.226562 L 444.441406 971.226562 C 437.125 971.226562 430.273438 972.59375 423.878906 975.34375 C 417.472656 978.089844 411.851562 981.816406 407.03125 986.507812 C 402.214844 991.210938 398.414062 996.757812 395.664062 1003.160156 C 392.917969 1009.558594 391.554688 1016.542969 391.554688 1024.132812 C 391.554688 1031.457031 392.917969 1038.371094 395.664062 1044.894531 C 398.414062 1051.417969 402.1875 1057.039062 407.03125 1061.738281 C 411.875 1066.433594 417.472656 1070.160156 423.878906 1072.90625 C 430.273438 1075.652344 437.140625 1077.023438 444.441406 1077.023438 C 452.015625 1077.023438 458.996094 1075.652344 465.402344 1072.90625 C 471.800781 1070.160156 477.34375 1066.433594 482.046875 1061.738281 C 486.75 1057.039062 490.464844 1051.417969 493.222656 1044.894531 C 495.96875 1038.371094 497.332031 1031.441406 497.332031 1024.132812 " clip-rule="nonzero"/></clipPath><clipPath id="d32262cd07"><path d="M 497.347656 1024.132812 L 497.347656 998.652344 L 540.453125 998.652344 L 540.453125 1102.511719 C 540.453125 1115.832031 537.972656 1128.386719 533 1140.136719 C 528.039062 1151.894531 521.25 1162.085938 512.632812 1170.703125 C 504.011719 1179.324219 493.890625 1186.113281 482.265625 1191.074219 C 470.628906 1196.042969 458.027344 1198.523438 444.441406 1198.523438 C 432.9375 1198.523438 422.03125 1196.695312 411.707031 1193.042969 C 401.394531 1189.394531 392.125 1184.21875 383.898438 1177.550781 C 375.671875 1170.878906 368.679688 1162.980469 362.933594 1153.84375 C 357.1875 1144.714844 353.128906 1134.765625 350.789062 1124.058594 L 396.234375 1124.058594 C 400.417969 1133.457031 406.746094 1141.039062 415.242188 1146.785156 C 423.734375 1152.53125 433.464844 1155.402344 444.441406 1155.402344 C 451.746094 1155.402344 458.613281 1154.09375 465.011719 1151.488281 C 471.40625 1148.882812 476.960938 1145.347656 481.65625 1140.898438 C 486.355469 1136.453125 490.082031 1131.101562 492.828125 1124.835938 C 495.578125 1118.582031 497.0625 1111.917969 497.332031 1104.859375 C 481.90625 1115.046875 464.285156 1120.144531 444.421875 1120.144531 C 431.09375 1120.144531 418.558594 1117.65625 406.796875 1112.695312 C 395.046875 1107.734375 384.882812 1100.933594 376.253906 1092.324219 C 367.621094 1083.703125 360.847656 1073.507812 355.878906 1061.757812 C 350.917969 1049.996094 348.4375 1037.460938 348.4375 1024.132812 C 348.4375 1010.554688 350.917969 997.941406 355.878906 986.316406 C 360.847656 974.683594 367.636719 964.558594 376.253906 955.941406 C 384.867188 947.324219 395.0625 940.53125 406.824219 935.570312 C 418.574219 930.609375 431.125 928.121094 444.441406 928.121094 L 540.453125 928.121094 L 540.453125 971.226562 L 444.441406 971.226562 C 437.125 971.226562 430.273438 972.59375 423.878906 975.34375 C 417.472656 978.089844 411.851562 981.816406 407.03125 986.507812 C 402.210938 991.210938 398.414062 996.757812 395.664062 1003.160156 C 392.917969 1009.558594 391.554688 1016.542969 391.554688 1024.132812 C 391.554688 1031.457031 392.917969 1038.371094 395.664062 1044.894531 C 398.414062 1051.417969 402.1875 1057.039062 407.03125 1061.738281 C 411.875 1066.433594 417.472656 1070.160156 423.878906 1072.90625 C 430.273438 1075.652344 437.140625 1077.023438 444.441406 1077.023438 C 452.015625 1077.023438 458.996094 1075.652344 465.402344 1072.90625 C 471.800781 1070.160156 477.34375 1066.433594 482.046875 1061.738281 C 486.75 1057.039062 490.464844 1051.417969 493.222656 1044.894531 C 495.96875 1038.371094 497.332031 1031.441406 497.332031 1024.132812 " clip-rule="nonzero"/></clipPath><clipPath id="98fa4b94a5"><path d="M 579.636719 928.113281 L 622.742188 928.113281 L 622.742188 1116.226562 L 579.636719 1116.226562 Z M 579.636719 928.113281 " clip-rule="nonzero"/></clipPath><clipPath id="0af8c9862b"><path d="M 572.4375 858.011719 L 629.964844 858.011719 L 629.964844 911.679688 L 572.4375 911.679688 Z M 572.4375 858.011719 " clip-rule="nonzero"/></clipPath><clipPath id="73221b1634"><path d="M 629.90625 858.011719 L 629.90625 891.875 L 601.203125 911.660156 L 572.472656 891.875 L 572.472656 858.011719 L 601.203125 877.796875 Z M 629.90625 858.011719 " clip-rule="nonzero"/></clipPath><clipPath id="d5dede7313"><path d="M 629.90625 858.011719 L 629.90625 891.875 L 601.203125 911.660156 L 572.472656 891.875 L 572.472656 858.011719 L 601.203125 877.796875 Z M 629.90625 858.011719 " clip-rule="nonzero"/></clipPath><clipPath id="a19a605d68"><path d="M 654.042969 924.207031 L 848.605469 924.207031 L 848.605469 1120.417969 L 654.042969 1120.417969 Z M 654.042969 924.207031 " clip-rule="nonzero"/></clipPath><clipPath id="0b42717faa"><path d="M 802.613281 1002.59375 C 798.949219 991.613281 792.691406 983 783.804688 976.71875 C 774.917969 970.449219 764.070312 967.324219 751.292969 967.324219 C 738.222656 967.324219 727.246094 970.464844 718.363281 976.71875 C 709.484375 982.984375 703.34375 991.613281 699.945312 1002.59375 Z M 654.09375 1022.179688 C 654.09375 1008.074219 656.5 995.019531 661.34375 983 C 666.179688 970.972656 672.902344 960.601562 681.523438 951.847656 C 690.140625 943.089844 700.386719 936.296875 712.28125 931.453125 C 724.183594 926.617188 737.179688 924.207031 751.265625 924.207031 C 765.363281 924.207031 778.378906 926.617188 790.277344 931.453125 C 802.171875 936.296875 812.417969 943.089844 821.039062 951.832031 C 829.65625 960.570312 836.398438 970.972656 841.214844 982.984375 C 846.035156 994.984375 848.464844 1008.074219 848.464844 1022.160156 C 848.464844 1023.992188 848.398438 1025.761719 848.273438 1027.449219 C 848.148438 1029.136719 847.8125 1031.316406 847.296875 1033.921875 L 697.992188 1033.921875 C 700.347656 1047.25 706.152344 1057.765625 715.421875 1065.457031 C 724.691406 1073.15625 736.644531 1077.039062 751.265625 1077.039062 C 761.199219 1077.039062 770.007812 1075.210938 777.726562 1071.5625 C 785.433594 1067.902344 791.640625 1062.550781 796.34375 1055.492188 L 843.363281 1055.492188 C 840.222656 1065.421875 835.769531 1074.375 830.050781 1082.335938 C 824.320312 1090.304688 817.4375 1097.109375 809.480469 1102.714844 C 801.519531 1108.316406 792.632812 1112.644531 782.828125 1115.632812 C 773.023438 1118.632812 762.507812 1120.144531 751.292969 1120.144531 C 737.179688 1120.144531 724.183594 1117.730469 712.296875 1112.886719 C 700.421875 1108.050781 690.140625 1101.328125 681.523438 1092.707031 C 672.902344 1084.097656 666.164062 1073.773438 661.34375 1061.757812 C 656.515625 1049.730469 654.09375 1036.542969 654.09375 1022.179688 " clip-rule="nonzero"/></clipPath><clipPath id="508253a814"><path d="M 802.613281 1002.59375 C 798.949219 991.613281 792.691406 983 783.804688 976.71875 C 774.917969 970.449219 764.070312 967.324219 751.292969 967.324219 C 738.222656 967.324219 727.246094 970.464844 718.363281 976.71875 C 709.484375 982.984375 703.34375 991.613281 699.945312 1002.59375 Z M 654.09375 1022.179688 C 654.09375 1008.074219 656.5 995.019531 661.34375 983 C 666.179688 970.972656 672.902344 960.601562 681.523438 951.847656 C 690.140625 943.089844 700.386719 936.296875 712.28125 931.453125 C 724.183594 926.617188 737.179688 924.207031 751.265625 924.207031 C 765.363281 924.207031 778.378906 926.617188 790.277344 931.453125 C 802.171875 936.296875 812.417969 943.089844 821.039062 951.832031 C 829.65625 960.570312 836.398438 970.972656 841.214844 982.984375 C 846.035156 994.984375 848.464844 1008.074219 848.464844 1022.160156 C 848.464844 1023.992188 848.398438 1025.761719 848.273438 1027.449219 C 848.148438 1029.136719 847.8125 1031.316406 847.296875 1033.921875 L 697.992188 1033.921875 C 700.347656 1047.25 706.152344 1057.765625 715.421875 1065.457031 C 724.691406 1073.15625 736.644531 1077.039062 751.265625 1077.039062 C 761.199219 1077.039062 770.007812 1075.210938 777.726562 1071.5625 C 785.433594 1067.902344 791.640625 1062.550781 796.34375 1055.492188 L 843.363281 1055.492188 C 840.222656 1065.421875 835.769531 1074.375 830.050781 1082.335938 C 824.320312 1090.304688 817.4375 1097.109375 809.480469 1102.714844 C 801.519531 1108.316406 792.632812 1112.644531 782.828125 1115.632812 C 773.023438 1118.632812 762.507812 1120.144531 751.292969 1120.144531 C 737.179688 1120.144531 724.183594 1117.730469 712.296875 1112.886719 C 700.421875 1108.050781 690.140625 1101.328125 681.523438 1092.707031 C 672.902344 1084.097656 666.164062 1073.773438 661.34375 1061.757812 C 656.515625 1049.730469 654.09375 1036.542969 654.09375 1022.179688 " clip-rule="nonzero"/></clipPath><clipPath id="261ee43d81"><path d="M 879.808594 924.207031 L 1056 924.207031 L 1056 1116 L 879.808594 1116 Z M 879.808594 924.207031 " clip-rule="nonzero"/></clipPath><clipPath id="1b95e0f12a"><path d="M 967.980469 967.308594 C 954.398438 967.308594 943.5 971.300781 935.257812 979.257812 C 927.003906 987.21875 922.914062 997.875 922.914062 1011.1875 L 922.914062 1116.226562 L 879.808594 1116.226562 L 879.808594 1011.210938 C 879.808594 998.652344 882.03125 987.042969 886.472656 976.335938 C 890.925781 965.621094 897.046875 956.410156 904.898438 948.691406 C 912.757812 940.984375 921.996094 934.988281 932.71875 930.679688 C 943.441406 926.367188 955.183594 924.207031 967.980469 924.207031 C 980.78125 924.207031 992.542969 926.367188 1003.25 930.679688 C 1013.957031 934.988281 1023.226562 941 1031.070312 948.691406 C 1038.902344 956.382812 1044.984375 965.605469 1049.292969 976.320312 C 1053.601562 987.027344 1055.765625 998.652344 1055.765625 1011.1875 L 1055.765625 1116.226562 L 1012.660156 1116.226562 L 1012.660156 1011.210938 C 1012.660156 997.875 1008.601562 987.234375 1000.519531 979.277344 C 992.433594 971.316406 981.566406 967.324219 968.003906 967.324219 " clip-rule="nonzero"/></clipPath><clipPath id="1d0bd9bd16"><path d="M 967.980469 967.308594 C 954.398438 967.308594 943.5 971.300781 935.257812 979.257812 C 927.003906 987.21875 922.914062 997.875 922.914062 1011.1875 L 922.914062 1116.226562 L 879.808594 1116.226562 L 879.808594 1011.210938 C 879.808594 998.652344 882.03125 987.042969 886.472656 976.335938 C 890.925781 965.621094 897.046875 956.410156 904.898438 948.691406 C 912.757812 940.984375 921.996094 934.988281 932.71875 930.679688 C 943.441406 926.367188 955.183594 924.207031 967.980469 924.207031 C 980.78125 924.207031 992.542969 926.367188 1003.25 930.679688 C 1013.957031 934.988281 1023.226562 941 1031.070312 948.691406 C 1038.902344 956.382812 1044.984375 965.605469 1049.292969 976.320312 C 1053.601562 987.027344 1055.765625 998.652344 1055.765625 1011.1875 L 1055.765625 1116.226562 L 1012.660156 1116.226562 L 1012.660156 1011.210938 C 1012.660156 997.875 1008.601562 987.234375 1000.519531 979.277344 C 992.433594 971.316406 981.566406 967.324219 968.003906 967.324219 " clip-rule="nonzero"/></clipPath><clipPath id="4b5aff9540"><path d="M 1087.109375 924.207031 L 1280.730469 924.207031 L 1280.730469 1120.417969 L 1087.109375 1120.417969 Z M 1087.109375 924.207031 " clip-rule="nonzero"/></clipPath><clipPath id="3873fa1706"><path d="M 1185.09375 967.308594 C 1177.25 967.308594 1170 968.679688 1163.335938 971.425781 C 1156.671875 974.171875 1150.925781 978.015625 1146.097656 982.984375 C 1141.277344 987.945312 1137.410156 993.765625 1134.539062 1000.429688 C 1131.667969 1007.09375 1130.230469 1014.34375 1130.230469 1022.1875 C 1130.230469 1030.019531 1131.667969 1037.269531 1134.539062 1043.933594 C 1137.410156 1050.605469 1141.261719 1056.34375 1146.097656 1061.171875 C 1150.941406 1065.992188 1156.6875 1069.859375 1163.335938 1072.730469 C 1169.984375 1075.605469 1177.25 1077.039062 1185.09375 1077.039062 C 1196.84375 1077.039062 1207.234375 1074.042969 1216.246094 1068.027344 C 1225.246094 1062.023438 1231.71875 1053.921875 1235.636719 1043.742188 L 1280.710938 1043.742188 C 1278.363281 1054.984375 1274.238281 1065.304688 1268.367188 1074.703125 C 1262.496094 1084.097656 1255.371094 1092.148438 1247.003906 1098.796875 C 1238.636719 1105.445312 1229.164062 1110.6875 1218.582031 1114.464844 C 1207.992188 1118.246094 1196.828125 1120.144531 1185.074219 1120.144531 C 1171.488281 1120.144531 1158.675781 1117.585938 1146.664062 1112.5 C 1134.664062 1107.40625 1124.273438 1100.476562 1115.511719 1091.738281 C 1106.761719 1082.996094 1099.847656 1072.605469 1094.75 1060.585938 C 1089.664062 1048.570312 1087.109375 1035.765625 1087.109375 1022.1875 C 1087.109375 1008.339844 1089.664062 995.476562 1094.75 983.585938 C 1099.847656 971.691406 1106.777344 961.320312 1115.511719 952.433594 C 1124.257812 943.546875 1134.664062 936.617188 1146.683594 931.65625 C 1158.710938 926.695312 1171.488281 924.207031 1185.09375 924.207031 C 1196.84375 924.207031 1208.019531 926.101562 1218.601562 929.902344 C 1229.179688 933.691406 1238.652344 938.902344 1247.019531 945.570312 C 1255.390625 952.242188 1262.496094 960.269531 1268.382812 969.671875 C 1274.273438 979.066406 1278.382812 989.398438 1280.730469 1000.621094 L 1235.636719 1000.621094 C 1231.71875 990.425781 1225.246094 982.339844 1216.246094 976.335938 C 1207.234375 970.324219 1196.84375 967.324219 1185.09375 967.324219 " clip-rule="nonzero"/></clipPath><clipPath id="2a9963d9c2"><path d="M 1185.09375 967.308594 C 1177.25 967.308594 1170 968.679688 1163.335938 971.425781 C 1156.671875 974.171875 1150.925781 978.015625 1146.097656 982.984375 C 1141.277344 987.945312 1137.410156 993.765625 1134.539062 1000.429688 C 1131.667969 1007.09375 1130.230469 1014.34375 1130.230469 1022.1875 C 1130.230469 1030.019531 1131.667969 1037.269531 1134.539062 1043.933594 C 1137.410156 1050.609375 1141.261719 1056.34375 1146.097656 1061.171875 C 1150.941406 1065.992188 1156.6875 1069.859375 1163.335938 1072.730469 C 1169.984375 1075.605469 1177.25 1077.039062 1185.09375 1077.039062 C 1196.84375 1077.039062 1207.234375 1074.042969 1216.246094 1068.027344 C 1225.246094 1062.023438 1231.71875 1053.921875 1235.636719 1043.742188 L 1280.710938 1043.742188 C 1278.363281 1054.984375 1274.238281 1065.304688 1268.367188 1074.703125 C 1262.496094 1084.097656 1255.371094 1092.148438 1247.003906 1098.796875 C 1238.636719 1105.445312 1229.164062 1110.6875 1218.582031 1114.464844 C 1207.992188 1118.246094 1196.828125 1120.144531 1185.074219 1120.144531 C 1171.488281 1120.144531 1158.675781 1117.585938 1146.664062 1112.5 C 1134.664062 1107.40625 1124.273438 1100.476562 1115.511719 1091.738281 C 1106.761719 1082.996094 1099.84375 1072.605469 1094.75 1060.585938 C 1089.664062 1048.570312 1087.109375 1035.765625 1087.109375 1022.1875 C 1087.109375 1008.339844 1089.664062 995.476562 1094.75 983.585938 C 1099.84375 971.691406 1106.777344 961.320312 1115.511719 952.433594 C 1124.257812 943.546875 1134.664062 936.617188 1146.683594 931.65625 C 1158.710938 926.695312 1171.488281 924.207031 1185.09375 924.207031 C 1196.84375 924.207031 1208.019531 926.101562 1218.601562 929.902344 C 1229.179688 933.691406 1238.652344 938.902344 1247.019531 945.570312 C 1255.390625 952.242188 1262.496094 960.269531 1268.382812 969.671875 C 1274.273438 979.066406 1278.382812 989.398438 1280.730469 1000.621094 L 1235.636719 1000.621094 C 1231.71875 990.425781 1225.246094 982.339844 1216.246094 976.335938 C 1207.234375 970.324219 1196.84375 967.324219 1185.09375 967.324219 " clip-rule="nonzero"/></clipPath><clipPath id="d6c6a7e473"><path d="M 1304.011719 924.207031 L 1498.578125 924.207031 L 1498.578125 1120.417969 L 1304.011719 1120.417969 Z M 1304.011719 924.207031 " clip-rule="nonzero"/></clipPath><clipPath id="aa1d2fcb49"><path d="M 1452.734375 1002.59375 C 1449.058594 991.613281 1442.804688 983 1433.917969 976.71875 C 1425.039062 970.449219 1414.191406 967.324219 1401.402344 967.324219 C 1388.332031 967.324219 1377.359375 970.464844 1368.480469 976.71875 C 1359.59375 982.984375 1353.464844 991.613281 1350.058594 1002.59375 Z M 1304.207031 1022.179688 C 1304.207031 1008.074219 1306.621094 995.019531 1311.453125 983 C 1316.300781 970.972656 1323.023438 960.601562 1331.632812 951.847656 C 1340.25 943.089844 1350.515625 936.296875 1362.402344 931.453125 C 1374.277344 926.617188 1387.289062 924.207031 1401.386719 924.207031 C 1415.484375 924.207031 1428.496094 926.617188 1440.390625 931.453125 C 1452.289062 936.296875 1462.539062 943.089844 1471.15625 951.832031 C 1479.769531 960.570312 1486.492188 970.972656 1491.328125 982.984375 C 1496.171875 994.984375 1498.585938 1008.074219 1498.585938 1022.160156 C 1498.585938 1023.992188 1498.507812 1025.761719 1498.382812 1027.449219 C 1498.257812 1029.136719 1497.925781 1031.316406 1497.414062 1033.921875 L 1348.101562 1033.921875 C 1350.464844 1047.25 1356.261719 1057.765625 1365.53125 1065.457031 C 1374.8125 1073.15625 1386.753906 1077.039062 1401.386719 1077.039062 C 1411.316406 1077.039062 1420.128906 1075.210938 1427.835938 1071.5625 C 1435.554688 1067.902344 1441.757812 1062.550781 1446.453125 1055.492188 L 1493.472656 1055.492188 C 1490.339844 1065.421875 1485.890625 1074.375 1480.160156 1082.335938 C 1474.429688 1090.304688 1467.558594 1097.109375 1459.589844 1102.714844 C 1451.632812 1108.316406 1442.753906 1112.644531 1432.949219 1115.632812 C 1423.144531 1118.632812 1412.628906 1120.144531 1401.402344 1120.144531 C 1387.289062 1120.144531 1374.292969 1117.730469 1362.417969 1112.886719 C 1350.53125 1108.050781 1340.25 1101.328125 1331.632812 1092.707031 C 1323.023438 1084.097656 1316.28125 1073.773438 1311.453125 1061.757812 C 1306.636719 1049.730469 1304.207031 1036.542969 1304.207031 1022.179688 " clip-rule="nonzero"/></clipPath><clipPath id="a538c21e5e"><path d="M 1452.734375 1002.59375 C 1449.058594 991.613281 1442.804688 983 1433.917969 976.71875 C 1425.039062 970.449219 1414.191406 967.324219 1401.402344 967.324219 C 1388.332031 967.324219 1377.359375 970.464844 1368.480469 976.71875 C 1359.59375 982.984375 1353.464844 991.613281 1350.058594 1002.59375 Z M 1304.207031 1022.179688 C 1304.207031 1008.074219 1306.621094 995.019531 1311.453125 983 C 1316.300781 970.972656 1323.023438 960.601562 1331.632812 951.847656 C 1340.25 943.089844 1350.515625 936.296875 1362.402344 931.453125 C 1374.277344 926.617188 1387.289062 924.207031 1401.386719 924.207031 C 1415.484375 924.207031 1428.496094 926.617188 1440.390625 931.453125 C 1452.289062 936.296875 1462.539062 943.089844 1471.15625 951.832031 C 1479.769531 960.570312 1486.492188 970.972656 1491.328125 982.984375 C 1496.171875 994.984375 1498.585938 1008.074219 1498.585938 1022.160156 C 1498.585938 1023.992188 1498.507812 1025.761719 1498.382812 1027.449219 C 1498.257812 1029.136719 1497.925781 1031.316406 1497.414062 1033.921875 L 1348.101562 1033.921875 C 1350.464844 1047.25 1356.261719 1057.765625 1365.53125 1065.457031 C 1374.8125 1073.15625 1386.753906 1077.039062 1401.386719 1077.039062 C 1411.316406 1077.039062 1420.128906 1075.210938 1427.835938 1071.5625 C 1435.554688 1067.902344 1441.757812 1062.550781 1446.453125 1055.492188 L 1493.472656 1055.492188 C 1490.339844 1065.421875 1485.890625 1074.375 1480.160156 1082.335938 C 1474.429688 1090.304688 1467.558594 1097.109375 1459.589844 1102.714844 C 1451.632812 1108.316406 1442.753906 1112.644531 1432.949219 1115.632812 C 1423.144531 1118.632812 1412.628906 1120.144531 1401.402344 1120.144531 C 1387.289062 1120.144531 1374.292969 1117.730469 1362.417969 1112.886719 C 1350.53125 1108.050781 1340.25 1101.328125 1331.632812 1092.707031 C 1323.023438 1084.097656 1316.28125 1073.773438 1311.453125 1061.757812 C 1306.636719 1049.730469 1304.207031 1036.542969 1304.207031 1022.179688 " clip-rule="nonzero"/></clipPath></defs><g clip-path="url(#46dd153ec6)"><g clip-path="url(#2b40edccee)"><g clip-path="url(#39856be09c)"><path fill="#38b6ff" d="M 193.789062 -19.949219 L 1306.191406 -19.949219 L 1306.191406 1092.449219 L 193.789062 1092.449219 Z M 193.789062 -19.949219 " fill-opacity="1" fill-rule="nonzero"/></g></g></g><g clip-path="url(#6460f3efd0)"><g clip-path="url(#2db0b42caa)"><g clip-path="url(#9c85d16ec9)"><path fill="#38b6ff" d="M 193.789062 -19.949219 L 1306.191406 -19.949219 L 1306.191406 1092.449219 L 193.789062 1092.449219 Z M 193.789062 -19.949219 " fill-opacity="1" fill-rule="nonzero"/></g></g></g><g clip-path="url(#47722c20d4)"><g clip-path="url(#ac402b7f33)"><g clip-path="url(#e09e6ec445)"><path fill="#38b6ff" d="M 193.789062 -19.949219 L 1306.191406 -19.949219 L 1306.191406 1092.449219 L 193.789062 1092.449219 Z M 193.789062 -19.949219 " fill-opacity="1" fill-rule="nonzero"/></g></g></g><g clip-path="url(#7335d8b787)"><g clip-path="url(#30e444f636)"><g clip-path="url(#abce2963ab)"><path fill="#1e56b6" d="M 193.789062 -19.949219 L 1306.191406 -19.949219 L 1306.191406 1092.449219 L 193.789062 1092.449219 Z M 193.789062 -19.949219 " fill-opacity="1" fill-rule="nonzero"/></g></g></g><g clip-path="url(#568641428d)"><g clip-path="url(#7a37f5f10a)"><g clip-path="url(#4b3764fe38)"><path fill="#1e56b6" d="M 193.789062 -19.949219 L 1306.191406 -19.949219 L 1306.191406 1092.449219 L 193.789062 1092.449219 Z M 193.789062 -19.949219 " fill-opacity="1" fill-rule="nonzero"/></g></g></g><g clip-path="url(#bdbb2c82d6)"><g clip-path="url(#426814c616)"><g clip-path="url(#9f91401d64)"><path fill="#004aad" d="M 193.789062 -19.949219 L 1306.191406 -19.949219 L 1306.191406 1092.449219 L 193.789062 1092.449219 Z M 193.789062 -19.949219 " fill-opacity="1" fill-rule="nonzero"/></g></g></g><g clip-path="url(#c929460bfc)"><g clip-path="url(#28e7da17a0)"><g clip-path="url(#134ea698e4)"><path fill="#1e56b6" d="M 193.789062 -19.949219 L 1306.191406 -19.949219 L 1306.191406 1092.449219 L 193.789062 1092.449219 Z M 193.789062 -19.949219 " fill-opacity="1" fill-rule="nonzero"/></g></g></g><g clip-path="url(#c886b012ef)"><path fill="#004aad" d="M 193.789062 -19.949219 L 1306.191406 -19.949219 L 1306.191406 1092.449219 L 193.789062 1092.449219 Z M 193.789062 -19.949219 " fill-opacity="1" fill-rule="nonzero"/></g><g clip-path="url(#9f91c7791f)"><g clip-path="url(#69384a3787)"><g clip-path="url(#8a08b7ea5d)"><path fill="#004aad" d="M 193.789062 -19.949219 L 1306.191406 -19.949219 L 1306.191406 1092.449219 L 193.789062 1092.449219 Z M 193.789062 -19.949219 " fill-opacity="1" fill-rule="nonzero"/></g></g></g><g clip-path="url(#db9d5699fe)"><g clip-path="url(#5c298cf268)"><g clip-path="url(#c1ecae90be)"><path fill="#1e56b6" d="M 55.214844 853.667969 L 102.308594 853.667969 L 102.308594 1116.210938 L 55.214844 1116.210938 Z M 55.214844 853.667969 " fill-opacity="1" fill-rule="nonzero"/></g></g></g><g clip-path="url(#8f8898b88c)"><g clip-path="url(#ac1f19a424)"><g clip-path="url(#5fa70d0682)"><path fill="#1e56b6" d="M 130.554688 924.207031 L 324.925781 924.207031 L 324.925781 1120.09375 L 130.554688 1120.09375 Z M 130.554688 924.207031 " fill-opacity="1" fill-rule="nonzero"/></g></g></g><g clip-path="url(#010cf5c803)"><g clip-path="url(#c076ca7da5)"><g clip-path="url(#d32262cd07)"><path fill="#1e56b6" d="M 348.4375 928.121094 L 540.453125 928.121094 L 540.453125 1198.148438 L 348.4375 1198.148438 Z M 348.4375 928.121094 " fill-opacity="1" fill-rule="nonzero"/></g></g></g><g clip-path="url(#98fa4b94a5)"><path fill="#1e56b6" d="M -1172.691406 118.855469 L 1981.542969 118.855469 L 1981.542969 1892.214844 L -1172.691406 1892.214844 Z M -1172.691406 118.855469 " fill-opacity="1" fill-rule="nonzero"/></g><g clip-path="url(#0af8c9862b)"><g clip-path="url(#73221b1634)"><g clip-path="url(#d5dede7313)"><path fill="#38b6ff" d="M -1172.691406 118.855469 L 1981.542969 118.855469 L 1981.542969 1892.214844 L -1172.691406 1892.214844 Z M -1172.691406 118.855469 " fill-opacity="1" fill-rule="nonzero"/></g></g></g><g clip-path="url(#a19a605d68)"><g clip-path="url(#0b42717faa)"><g clip-path="url(#508253a814)"><path fill="#1e56b6" d="M 654.09375 924.207031 L 848.464844 924.207031 L 848.464844 1120.09375 L 654.09375 1120.09375 Z M 654.09375 924.207031 " fill-opacity="1" fill-rule="nonzero"/></g></g></g><g clip-path="url(#261ee43d81)"><g clip-path="url(#1b95e0f12a)"><g clip-path="url(#1d0bd9bd16)"><path fill="#1e56b6" d="M 879.808594 924.207031 L 1055.765625 924.207031 L 1055.765625 1115.96875 L 879.808594 1115.96875 Z M 879.808594 924.207031 " fill-opacity="1" fill-rule="nonzero"/></g></g></g><g clip-path="url(#4b5aff9540)"><g clip-path="url(#3873fa1706)"><g clip-path="url(#2a9963d9c2)"><path fill="#1e56b6" d="M 1087.109375 924.207031 L 1280.703125 924.207031 L 1280.703125 1120.058594 L 1087.109375 1120.058594 Z M 1087.109375 924.207031 " fill-opacity="1" fill-rule="nonzero"/></g></g></g><g clip-path="url(#d6c6a7e473)"><g clip-path="url(#aa1d2fcb49)"><g clip-path="url(#a538c21e5e)"><path fill="#1e56b6" d="M 1304.207031 924.207031 L 1498.578125 924.207031 L 1498.578125 1120.09375 L 1304.207031 1120.09375 Z M 1304.207031 924.207031 " fill-opacity="1" fill-rule="nonzero"/></g></g></g></svg>